<svg xmlns="http://www.w3.org/2000/svg" viewBox="0 0 54.1 40.1"><defs><style>.cls-2{fill:#3f4142}.cls-3{fill:#b28e5d}.cls-4{fill:#494643}</style></defs><g id="Слой_2" data-name="Слой 2"><g id="Слой_4" data-name="Слой 4"><path d="M6.67 25.18a.25.25 0 00-.22.25v.08a.25.25 0 01.22-.25l2.6-.44v-.07zm33.92-5.8a1.45 1.45 0 01-.18-.66 1.4 1.4 0 00.18.74 3.37 3.37 0 01.19.32zm-27-.57a1.25 1.25 0 01-.18.65c-.06.11-.12.21-.17.32.05-.08.09-.16.13-.24a1.26 1.26 0 00.22-.73zm.26-7.28l.08-.06a.22.22 0 01.1 0 .25.25 0 01.15.05l3.34 2.38a1.32 1.32 0 001.43.06A15.36 15.36 0 0123 12.23a1.33 1.33 0 001-1l.7-4.1a.25.25 0 01.25-.21H29a.26.26 0 01.26.21l.67 4a1.31 1.31 0 001 1A15.73 15.73 0 0135 13.89a1.31 1.31 0 001.42-.06l3.34-2.4a.3.3 0 01.14 0 .27.27 0 01.19.08L43 14.34a.27.27 0 01.07.14.26.26 0 00-.07-.22l-2.88-2.88a.27.27 0 00-.19-.08.3.3 0 00-.14 0l-3.34 2.4a1.31 1.31 0 01-1.42.06 15.38 15.38 0 00-4.16-1.7 1.34 1.34 0 01-1-1.06l-.67-4a.26.26 0 00-.2-.2h-4.09a.25.25 0 00-.25.21l-.7 4.1a1.33 1.33 0 01-1 1A15.36 15.36 0 0019 13.86a1.32 1.32 0 01-1.43-.06l-3.34-2.38a.25.25 0 00-.15-.05.22.22 0 00-.1 0l-.08.06-2.9 2.9a.2.2 0 00-.06.15v.07a.35.35 0 01.06-.14zm33.54 13.63a.25.25 0 01.21.25v-.08a.25.25 0 00-.21-.25l-2.67-.45v.07z" fill="none"/><path class="cls-2" d="M40.41 18.72a1.35 1.35 0 01.24-.77L43 14.59a.15.15 0 000-.11.27.27 0 00-.07-.14l-2.88-2.88a.27.27 0 00-.19-.08.3.3 0 00-.14 0l-3.34 2.4a1.31 1.31 0 01-1.42.06 15.73 15.73 0 00-4.16-1.71 1.31 1.31 0 01-1-1l-.67-4a.26.26 0 00-.13-.25h-4.09a.25.25 0 00-.25.21l-.7 4.1a1.33 1.33 0 01-1 1A15.36 15.36 0 0019 13.94a1.32 1.32 0 01-1.43-.06l-3.39-2.38a.25.25 0 00-.15-.05.22.22 0 00-.1 0l-.08.06-2.85 2.9a.35.35 0 00-.06.14.15.15 0 000 .11l2.41 3.39a1.32 1.32 0 01.24.76 1.26 1.26 0 01-.18.73c0 .08-.08.16-.13.24h27.5a3.37 3.37 0 00-.19-.32 1.4 1.4 0 01-.18-.74z"/><path class="cls-3" d="M40.65 18a1.35 1.35 0 00-.24.77 1.43 1.43 0 01.24-.69L43 14.67a.26.26 0 000-.19.15.15 0 010 .11zm-29.71-3.34a.15.15 0 010-.11.23.23 0 000 .18l2.41 3.39a1.3 1.3 0 01.24.68 1.32 1.32 0 00-.24-.76zm29.84 5.12H13.2l9.39 15.53h8.8l9.39-15.53z"/><path class="cls-2" d="M32.44 30.35h-10.9l5.45 9.75 5.45-9.75z"/><path class="cls-3" d="M6.24 6.32a2 2 0 011.41-.59 2.2 2.2 0 01.36 0l3.43-3.43-1.07-1.03-9.18 9.18 1.07 1.07 3.43-3.43a2 2 0 01.55-1.77zM9.49 7l3.28-3.28-1.07-1.11-3.28 3.28a2 2 0 01.64.43 2 2 0 01.43.68zm7.51.91l-4-4-3.39 3.45a2 2 0 01-.55 1.78 2 2 0 01-1.41.58 2.22 2.22 0 01-.37 0l-3.42 3.4 4 4 3.61-3.62 2-2zM5.81 8.5l-3.29 3.28 1.07 1.07 3.28-3.28A2 2 0 015.81 8.5zM9.18.08a20.39 20.39 0 00-5.39 3.79A19.88 19.88 0 000 9.26l.93.93L10.11 1z"/><path class="cls-2" d="M7.52 9.72a1.94 1.94 0 001.41-.58 2 2 0 000-2.82 2 2 0 00-1.41-.59 2 2 0 100 4zM6.38 6.58a1.61 1.61 0 011.14-.47 1.65 1.65 0 011.15.47 1.64 1.64 0 010 2.3 1.65 1.65 0 01-1.15.47 1.62 1.62 0 01-1.14-2.77z"/><path class="cls-3" d="M15.89 14.36l-2.41-2.4-1.68 1.69 2.4 2.4v-.06zm31.97-8.13a2 2 0 00-1.41-.58h-.36l-3.43-3.39 1.07-1.07 9.18 9.18-1.07 1.07L48.41 8a2 2 0 00-.55-1.77zm-3.25.64l-3.28-3.28 1.07-1.07 3.28 3.29a2.09 2.09 0 00-.64.42 2.06 2.06 0 00-.43.64zm-7.51.96l4-4 3.43 3.42A2 2 0 0045 9.06a2 2 0 001.41.58 2.22 2.22 0 00.37 0L50.24 13l-4 4-3.61-3.61-1.95-2zm11.19.59l3.28 3.28-1.06 1.07-3.28-3.28a2 2 0 001.06-1.07zM44.92 0a19.19 19.19 0 019.18 9.18l-.93.93L44 .93z"/><path class="cls-2" d="M48 9.06a2 2 0 00-1.41-3.41 2 2 0 00-1.41.58 2 2 0 000 2.83 1.94 1.94 0 001.41.58A2 2 0 0048 9.06zm-.27-.27a1.58 1.58 0 01-1.14.48 1.6 1.6 0 01-1.15-.48 1.62 1.62 0 112.29 0z"/><path class="cls-3" d="M38.21 14.28l2.41-2.4 1.68 1.69-2.4 2.4v-.06z"/><path class="cls-2" d="M9.25 20.66h38.06l-4.36 7.41H13.82"/><path class="cls-4" d="M4.98 22.06h5.74l.78 1.44H6.96m1.12.61l3.68-.09.79 1.4h-2.49m1.07.69h1.74l.81 1.4h-.61"/><path class="cls-3" d="M4.47 22.34h5.75l.77 1.44H6.45m1.13.61l3.67-.09.79 1.4H9.55m1.07.68h1.74l.81 1.41h-.61"/><path class="cls-4" d="M51.41 22.06h-5.74l-.78 1.44h4.54m-1.12.61l-3.68-.09-.79 1.4h2.49m-1.07.69h-1.74l-.81 1.4h.61"/><path class="cls-3" d="M51.92 22.34h-5.75l-.77 1.44h4.54m-1.13.61l-3.67-.09-.79 1.4h2.49m-1.07.68h-1.74l-.81 1.41h.61"/><text transform="translate(12.96 26.08)" fill="#dfb799" font-family="Gagalin-Regular,Gagalin" font-size="4.75" letter-spacing=".1em">МАСТЕРСКАЯ</text><text transform="translate(19.94 17.9)" font-size="5.43" letter-spacing=".2em" fill="#dfb799" font-family="Gagalin-Regular,Gagalin">АВТО</text></g></g></svg>