<svg width="45" height="45" fill="none" xmlns="http://www.w3.org/2000/svg"><path d="M22.5 45C10.1 45 0 34.9 0 22.5S10.1 0 22.5 0 45 10.1 45 22.5 34.9 45 22.5 45zm0-44C10.6 1 1 10.6 1 22.5S10.6 44 22.5 44 44 34.4 44 22.5 34.4 1 22.5 1z" fill="#C4C4C4" fill-opacity=".604"/><path d="M22.5 34.1c-.1 0-.2 0-.3-.1-.4-.3-9.4-8.1-9.4-13.4 0-5.4 4.4-9.8 9.8-9.8s9.8 4.4 9.8 9.8c0 5.3-9 13.1-9.4 13.4-.3.1-.4.1-.5.1zm0-22.2c-4.8 0-8.8 3.9-8.8 8.8 0 4.3 7.1 10.9 8.8 12.3 1.6-1.4 8.8-8 8.8-12.3 0-4.9-4-8.8-8.8-8.8z" fill="#C4C4C4" fill-opacity=".604"/><path d="M22.5 25.1c-2.5 0-4.5-2-4.5-4.5s2-4.5 4.5-4.5 4.5 2 4.5 4.5-2 4.5-4.5 4.5zm0-8c-1.9 0-3.5 1.6-3.5 3.5s1.6 3.5 3.5 3.5 3.5-1.6 3.5-3.5-1.6-3.5-3.5-3.5z" fill="#C4C4C4" fill-opacity=".604"/></svg>