<svg width="45" height="45" fill="none" xmlns="http://www.w3.org/2000/svg"><path d="M22.5 45C10.1 45 0 34.9 0 22.5S10.1 0 22.5 0 45 10.1 45 22.5 34.9 45 22.5 45zm0-44C10.6 1 1 10.6 1 22.5S10.6 44 22.5 44 44 34.4 44 22.5 34.4 1 22.5 1z" fill="#C4C4C4" fill-opacity=".604"/><path d="M22.5 33.7c-6.2 0-11.2-5-11.2-11.2 0-6.2 5-11.2 11.2-11.2 6.2 0 11.2 5 11.2 11.2 0 6.2-5 11.2-11.2 11.2zm0-21.4c-5.6 0-10.2 4.6-10.2 10.2s4.6 10.2 10.2 10.2 10.2-4.6 10.2-10.2-4.6-10.2-10.2-10.2z" fill="#C4C4C4" fill-opacity=".604"/><path d="M22.5 23c-.3 0-.5-.2-.5-.5v-6.9c0-.3.2-.5.5-.5s.5.2.5.5v6.9c0 .3-.2.5-.5.5zm4.1-7.2c-.1 0-.2 0-.2-.1-.2-.1-.3-.4-.2-.6l.3-.5c.1-.2.4-.3.6-.2.2.1.3.4.2.6l-.3.6c0 .1-.2.2-.4.2zm-8.5 14.8c-.1 0-.2 0-.2-.1-.2-.1-.3-.4-.2-.6l.3-.5c.1-.2.4-.3.6-.2.2.1.3.4.2.6l-.3.5c-.1.2-.3.3-.4.3zm12-3.2c-.1 0-.2 0-.2-.1l-.5-.3c-.2-.1-.3-.4-.2-.6.1-.2.4-.3.6-.2l.5.3c.2.1.3.4.2.6-.1.2-.2.3-.4.3zm-14.8-8.6c-.1 0-.2 0-.2-.1l-.5-.3c-.2-.1-.3-.4-.2-.6.1-.2.4-.3.6-.2l.5.3c.2.1.3.4.2.6-.1.2-.2.3-.4.3zm3.1-3c-.2 0-.3-.1-.4-.2l-.3-.5c-.1-.2-.1-.5.2-.6.2-.1.5-.1.6.2l.3.5c.1.2.1.5-.2.6h-.2zm8.5 14.8c-.2 0-.3-.1-.4-.2l-.3-.5c-.1-.2-.1-.5.2-.6.2-.1.5-.1.6.2l.3.5c.1.2.1.5-.2.6h-.2zm-12-3.2c-.2 0-.3-.1-.4-.2-.1-.2 0-.5.2-.6l.5-.3c.2-.1.5-.1.6.2.1.2 0 .5-.2.6l-.5.3c-.1-.1-.2 0-.2 0zm14.8-8.6c-.2 0-.3-.1-.4-.2-.1-.2-.1-.5.2-.6l.5-.3c.2-.1.5-.1.6.2.1.2.1.5-.2.6l-.5.3h-.2zM14.2 23h-.5c-.3 0-.5-.2-.5-.5s.2-.5.5-.5h.5c.3 0 .5.2.5.5s-.2.5-.5.5zm16.6 0c-.3 0-.5-.2-.5-.5s.2-.5.5-.5h.5c.3 0 .5.2.5.5s-.2.5-.5.5h-.5zm-8.3 8.8c-.3 0-.5-.2-.5-.5v-.5c0-.3.2-.5.5-.5s.5.2.5.5v.5c0 .3-.3.5-.5.5zm0-17.1c-.3 0-.5-.2-.5-.5v-.5c0-.3.2-.5.5-.5s.5.2.5.5v.5c0 .3-.2.5-.5.5z" fill="#C4C4C4" fill-opacity=".604"/><path d="M19.5 26c-.1 0-.3 0-.4-.1-.2-.2-.2-.5 0-.7l2.9-2.9c.2-.2.5-.2.7 0 .2.2.2.5 0 .7l-2.9 2.9c-.1.1-.2.1-.3.1z" fill="#C4C4C4" fill-opacity=".604"/></svg>