<svg xmlns="http://www.w3.org/2000/svg" viewBox="0 0 23.47 22.95"><defs><style>.cls-1{fill:#666;}.cls-2{fill:#1a1a1a;}</style></defs><title>Ресурс 8</title><g id="Слой_2" data-name="Слой 2"><g id="Слой_1-2" data-name="Слой 1"><path class="cls-1" d="M7.58,16.47h0a.53.53,0,0,1-.36-.15h0A.46.46,0,0,1,7,15.92L7.26,12a.58.58,0,0,1,.14-.33l9.27-9.26H6.42V7.86H1V22H17.17V10.66l-5.41,5.41a.48.48,0,0,1-.32.15l-2,.11-.09,0Z"/><rect class="cls-1" x="19.38" y="1.18" width="1.65" height="4.16" transform="translate(3.61 15.25) rotate(-45)"/><polygon class="cls-1" points="5.42 3.15 1.71 6.86 5.42 6.86 5.42 3.15"/><path class="cls-1" d="M10.54,13.64a.49.49,0,0,1-.35.15.51.51,0,0,1-.36-.15.5.5,0,0,1,0-.7L18.57,4.2,17.45,3.08l-9.2,9.21-.08,1.28a1.91,1.91,0,0,1,1.23.59,1.85,1.85,0,0,1,.49,1.15l1.3-.08L20.39,6,19.27,4.91Z"/><path class="cls-1" d="M8.67,14.84a.89.89,0,0,0-.54-.28l-.05.85.82,0A1,1,0,0,0,8.67,14.84Z"/><path class="cls-2" d="M7.26,12,7,15.92a.46.46,0,0,0,.15.38h0a.51.51,0,0,1-.13-.37l.11-1.89a.5.5,0,0,1,.42-.46l.17,0H8l.21,0,.08-1.28,9.2-9.21-.17-.17a.49.49,0,0,1-.13-.46h-.48L7.4,11.71A.58.58,0,0,0,7.26,12Z"/><path class="cls-2" d="M8.9,15.38h0l-.82,0v0Z"/><path class="cls-2" d="M19.68.15A.49.49,0,0,0,19.32,0,.47.47,0,0,0,19,.15l-1.3,1.3h0a.5.5,0,0,1,.5.5.53.53,0,0,1-.12.32l.11.11,1.16-1.17,2.95,2.94L21.1,5.32l.17.17a.51.51,0,0,1,0,.71.52.52,0,0,1-.71,0L20.39,6l-9.2,9.2-1.3.08a1.61,1.61,0,0,1,0,.38,1.33,1.33,0,0,1,0,.24.55.55,0,0,1-.38.4l2-.11a.48.48,0,0,0,.32-.15l5.41-5.41v-1a.5.5,0,0,1,1,0L23.33,4.5a.51.51,0,0,0,0-.7Z"/><path class="cls-2" d="M18.57,4.2l.29-.29a.5.5,0,0,1,.71,0,.48.48,0,0,1,0,.7l-.3.3L20.39,6l.71-.71L18.16,2.38l-.71.7Z"/><path class="cls-2" d="M20.56,6.2a.52.52,0,0,0,.71,0,.51.51,0,0,0,0-.71l-.17-.17L20.39,6Z"/><path class="cls-2" d="M17.67,2.45h-.52a.49.49,0,0,0,.13.46l.17.17.71-.7-.11-.11A.49.49,0,0,1,17.67,2.45Z"/><path class="cls-2" d="M9.83,13.64a.51.51,0,0,0,.36.15.49.49,0,0,0,.35-.15l8.73-8.73-.7-.71L9.83,12.94A.5.5,0,0,0,9.83,13.64Z"/><path class="cls-2" d="M19.57,4.61a.48.48,0,0,0,0-.7.5.5,0,0,0-.71,0l-.29.29.7.71Z"/><path class="cls-2" d="M7.53,16.45a.52.52,0,0,1-.35-.14h0a.53.53,0,0,0,.36.15h0l1.8-.11.09,0-1.91.12Z"/><path class="cls-2" d="M8.17,13.57l-.11,1.85h0l.05-.85a.89.89,0,0,1,.54.28,1,1,0,0,1,.23.53l1-.06a1.85,1.85,0,0,0-.49-1.15A1.91,1.91,0,0,0,8.17,13.57Z"/><path class="cls-2" d="M8.9,15.38l-.82,0v0h0l.11-1.85-.21,0H7.75l-.17,0a.5.5,0,0,0-.42.46l-.11,1.89a.51.51,0,0,0,.13.37.52.52,0,0,0,.35.14h0l1.91-.12a.55.55,0,0,0,.38-.4,1.33,1.33,0,0,0,0-.24,1.61,1.61,0,0,0,0-.38l-1,.06Z"/><path class="cls-2" d="M0,7.16v.2A.51.51,0,0,1,.15,7Z"/><path class="cls-2" d="M5.71,1.45l-.15.14a.52.52,0,0,1,.36-.14Z"/><path class="cls-2" d="M1.71,6.86,5.42,3.15V2a.51.51,0,0,1,.14-.36L.15,7A.49.49,0,0,1,.5,6.86Z"/><path class="cls-2" d="M17.17,22H1V7.86H.5a.5.5,0,0,1-.5-.5V23H18.17V9.67l-1,1Z"/><path class="cls-2" d="M6.42,2v.5H16.67l1-1H5.92A.5.5,0,0,1,6.42,2Z"/><path class="cls-2" d="M17.67,9.2a.5.5,0,0,0-.5.5v1l1-1A.5.5,0,0,0,17.67,9.2Z"/><path class="cls-2" d="M17.15,2.45a.56.56,0,0,1,.13-.24.5.5,0,0,1,.71,0l.06.06A.53.53,0,0,0,18.17,2a.5.5,0,0,0-.5-.5h0l-1,1Z"/><path class="cls-2" d="M17.28,2.21a.56.56,0,0,0-.13.24h.52a.49.49,0,0,0,.38-.18L18,2.21A.5.5,0,0,0,17.28,2.21Z"/><path class="cls-2" d="M5.56,1.59Z"/><path class="cls-2" d="M.15,7Z"/><polygon class="cls-2" points="6.42 2.45 6.13 2.45 5.42 3.15 5.42 6.86 1.71 6.86 1 7.57 1 7.86 6.42 7.86 6.42 2.45"/><path class="cls-2" d="M5.42,3.15l.71-.7h.29V2a.5.5,0,0,0-.5-.5.52.52,0,0,0-.36.14h0A.51.51,0,0,0,5.42,2Z"/><path class="cls-2" d="M.5,7.86H1V7.57l.71-.71H.5A.49.49,0,0,0,.15,7h0A.51.51,0,0,0,0,7.36.5.5,0,0,0,.5,7.86Z"/></g></g></svg>