<svg xmlns="http://www.w3.org/2000/svg" viewBox="0 0 22.5 22.5"><defs><style>.cls-1{fill:#666;}.cls-2{fill:#1a1a1a;}</style></defs><title>Ресурс 5</title><g id="Слой_2" data-name="Слой 2"><g id="Слой_1-2" data-name="Слой 1"><path class="cls-1" d="M21.3,9.76H19.64a1.53,1.53,0,0,1-1.4-1L17.94,8a1.53,1.53,0,0,1,.29-1.67L19.41,5.2a.21.21,0,0,0,.05-.15.18.18,0,0,0-.05-.14L17.59,3.09c-.1-.1-.18-.1-.29,0L16.13,4.27a1.56,1.56,0,0,1-1.7.27l-.72-.29a1.52,1.52,0,0,1-1-1.39V1.2a.2.2,0,0,0-.2-.2H10a.21.21,0,0,0-.2.2V2.86a1.53,1.53,0,0,1-1,1.4L8,4.56a1.65,1.65,0,0,1-1.67-.29L5.2,3.09C5.09,3,5,3,4.91,3.09L3.09,4.91a.18.18,0,0,0,0,.14.17.17,0,0,0,0,.14L4.27,6.37a1.53,1.53,0,0,1,.27,1.7l-.29.72a1.52,1.52,0,0,1-1.38,1H1.2A.21.21,0,0,0,1,10v2.58a.21.21,0,0,0,.2.2H2.87a1.52,1.52,0,0,1,1.39,1l.3.72a1.53,1.53,0,0,1-.29,1.67L3.09,17.31a.22.22,0,0,0,0,.28l1.82,1.82a.18.18,0,0,0,.29,0l1.17-1.18a1.54,1.54,0,0,1,1.07-.42,1.36,1.36,0,0,1,.63.15l.72.29a1.52,1.52,0,0,1,1,1.39V21.3a.2.2,0,0,0,.2.2h2.58a.2.2,0,0,0,.2-.2V19.64a1.53,1.53,0,0,1,1-1.4l.72-.3a1.65,1.65,0,0,1,1.67.29l1.17,1.18a.18.18,0,0,0,.29,0l1.82-1.82a.22.22,0,0,0,0-.28l-1.18-1.18a1.51,1.51,0,0,1-.27-1.7l.29-.72a1.52,1.52,0,0,1,1.39-1H21.3a.21.21,0,0,0,.2-.2V10A.21.21,0,0,0,21.3,9.76Zm-10,5.38a3.89,3.89,0,1,1,3.89-3.89A3.9,3.9,0,0,1,11.25,15.14Z"/><path d="M11.25,7.36a3.89,3.89,0,1,0,3.89,3.89A3.9,3.9,0,0,0,11.25,7.36Zm0,6.78a2.89,2.89,0,1,1,2.89-2.89A2.9,2.9,0,0,1,11.25,14.14Z"/><path class="cls-2" d="M21.3,8.76H19.64a.57.57,0,0,1-.47-.35l-.32-.79a.53.53,0,0,1,.09-.54L20.11,5.9a1.2,1.2,0,0,0,0-1.69L18.3,2.39a1.22,1.22,0,0,0-1.7,0L15.42,3.56a.51.51,0,0,1-.58.08l-.78-.33a.53.53,0,0,1-.32-.45V1.2A1.2,1.2,0,0,0,12.54,0H10a1.2,1.2,0,0,0-1.2,1.2V2.86a.57.57,0,0,1-.35.47l-.79.32a.56.56,0,0,1-.54-.09L5.9,2.39a1.21,1.21,0,0,0-1.69,0L2.39,4.2A1.19,1.19,0,0,0,2,5.05a1.15,1.15,0,0,0,.35.85L3.56,7.08a.56.56,0,0,1,.08.58l-.33.78a.53.53,0,0,1-.44.32H1.2A1.2,1.2,0,0,0,0,10v2.58a1.2,1.2,0,0,0,1.2,1.2H2.87a.56.56,0,0,1,.46.35l.32.79a.53.53,0,0,1-.09.54L2.39,16.6a1.17,1.17,0,0,0-.35.85,1.19,1.19,0,0,0,.35.85l1.82,1.82a1.23,1.23,0,0,0,1.69,0l1.18-1.18a.51.51,0,0,1,.58-.07l.78.32a.53.53,0,0,1,.32.45V21.3A1.2,1.2,0,0,0,10,22.5h2.58a1.2,1.2,0,0,0,1.2-1.2V19.64a.54.54,0,0,1,.35-.46l.79-.33a.56.56,0,0,1,.54.09l1.18,1.18a1.23,1.23,0,0,0,1.7,0l1.81-1.81a1.19,1.19,0,0,0,.35-.85,1.17,1.17,0,0,0-.35-.85l-1.17-1.18a.56.56,0,0,1-.08-.58l.33-.78a.53.53,0,0,1,.45-.32H21.3a1.2,1.2,0,0,0,1.2-1.2V10A1.2,1.2,0,0,0,21.3,8.76Zm.2,3.78a.21.21,0,0,1-.2.2H19.64a1.52,1.52,0,0,0-1.39,1l-.29.72a1.51,1.51,0,0,0,.27,1.7l1.18,1.18a.22.22,0,0,1,0,.28l-1.82,1.82a.18.18,0,0,1-.29,0l-1.17-1.18a1.65,1.65,0,0,0-1.67-.29l-.72.3a1.53,1.53,0,0,0-1,1.4V21.3a.2.2,0,0,1-.2.2H10a.2.2,0,0,1-.2-.2V19.64a1.52,1.52,0,0,0-1-1.39L8.07,18a1.36,1.36,0,0,0-.63-.15,1.54,1.54,0,0,0-1.07.42L5.2,19.41a.18.18,0,0,1-.29,0L3.09,17.59a.22.22,0,0,1,0-.28l1.18-1.18a1.53,1.53,0,0,0,.29-1.67l-.3-.72a1.52,1.52,0,0,0-1.39-1H1.2a.21.21,0,0,1-.2-.2V10a.21.21,0,0,1,.2-.2H2.87a1.52,1.52,0,0,0,1.38-1l.29-.72a1.53,1.53,0,0,0-.27-1.7L3.09,5.19a.17.17,0,0,1,0-.14.18.18,0,0,1,0-.14L4.91,3.09c.1-.1.18-.1.29,0L6.37,4.27A1.65,1.65,0,0,0,8,4.56l.72-.3a1.53,1.53,0,0,0,1-1.4V1.2A.21.21,0,0,1,10,1h2.58a.2.2,0,0,1,.2.2V2.86a1.52,1.52,0,0,0,1,1.39l.72.29a1.56,1.56,0,0,0,1.7-.27L17.3,3.09c.11-.1.19-.1.29,0l1.82,1.82a.18.18,0,0,1,.05.14.21.21,0,0,1-.05.15L18.23,6.37A1.53,1.53,0,0,0,17.94,8l.3.72a1.53,1.53,0,0,0,1.4,1H21.3a.21.21,0,0,1,.2.2Z"/></g></g></svg>