<svg width="40" height="40" fill="none" xmlns="http://www.w3.org/2000/svg"><path d="M20 40C8.978 40 0 31.022 0 20S8.978 0 20 0s20 8.978 20 20-8.978 20-20 20zM20 .889C9.422.889.889 9.422.889 20 .889 30.578 9.422 39.111 20 39.111c10.578 0 19.111-8.533 19.111-19.111C39.111 9.422 30.578.889 20 .889z" fill="#C4C4C4" fill-opacity=".8"/><path d="M15.111 28.533a2.485 2.485 0 01-2.489-2.489 2.485 2.485 0 012.49-2.489c1.421 0 2.488 1.067 2.488 2.49a2.485 2.485 0 01-2.489 2.488zm0-4c-.889 0-1.6.711-1.6 1.6 0 .89.711 1.6 1.6 1.6.889 0 1.6-.71 1.6-1.6 0-.889-.711-1.6-1.6-1.6zm9.956 4a2.485 2.485 0 01-2.49-2.489 2.485 2.485 0 012.49-2.489 2.485 2.485 0 012.488 2.49c0 1.421-1.066 2.488-2.488 2.488zm0-4c-.89 0-1.6.711-1.6 1.6 0 .89.71 1.6 1.6 1.6.889 0 1.6-.71 1.6-1.6 0-.889-.712-1.6-1.6-1.6z" fill="#C4C4C4" fill-opacity=".8"/><path d="M23.111 26.489h-5.689c-.266 0-.444-.178-.444-.445 0-.266.178-.444.444-.444h5.69c.266 0 .444.178.444.444 0 .267-.178.445-.445.445zm-7.644-2.045h-.09c-.266-.088-.355-.355-.266-.533l.533-1.778-3.022-9.066-2.489-.712c-.266-.088-.355-.355-.266-.533.089-.266.355-.355.533-.266l2.667.8c.177 0 .266.177.266.266l3.2 9.422v.267l-.622 1.867a.489.489 0 01-.444.266z" fill="#C4C4C4" fill-opacity=".8"/><path d="M27.378 22.578H16c-.178 0-.356-.089-.444-.356L13.332 15.2c0-.178 0-.267.09-.355.088-.09.177-.178.355-.178h16c.178 0 .266.089.355.178.09.088.09.266.09.355l-1.779 6.311c0 .622-.533 1.067-1.066 1.067zm-11.023-.889h11.023c.089 0 .177 0 .177-.178v-.089l1.69-5.777H14.488l1.866 6.044z" fill="#C4C4C4" fill-opacity=".8"/></svg>