<svg width="40" height="40" fill="none" xmlns="http://www.w3.org/2000/svg"><path d="M20 40C8.978 40 0 31.022 0 20S8.978 0 20 0s20 8.978 20 20-8.978 20-20 20zM20 .889C9.422.889.889 9.422.889 20 .889 30.578 9.422 39.111 20 39.111c10.578 0 19.111-8.533 19.111-19.111C39.111 9.422 30.578.889 20 .889z" fill="#C4C4C4" fill-opacity=".8"/><path d="M20.089 18.844c-2.133 0-3.822-1.955-3.822-4.355 0-2.4 1.689-4.356 3.822-4.356s3.822 1.956 3.822 4.356-1.689 4.355-3.822 4.355zm0-7.822c-1.6 0-2.933 1.511-2.933 3.467 0 1.866 1.333 3.466 2.933 3.466 1.6 0 2.933-1.51 2.933-3.466 0-1.867-1.333-3.467-2.933-3.467zm6.4 18.845H13.51c-.267 0-.444-.178-.444-.445l-.267-4.178c-.089-1.333.978-2.933 2.311-3.466 3.2-1.156 6.667-1.156 9.778 0 1.511.533 2.4 2.222 2.311 3.466l-.267 4.178c0 .267-.177.445-.444.445zm-12.534-.89h12.178l.267-3.821c.089-.89-.711-2.134-1.778-2.578a13.497 13.497 0 00-9.155 0c-1.067.355-1.778 1.689-1.778 2.578l.267 3.822z" fill="#C4C4C4" fill-opacity=".5"/></svg>