<svg xmlns="http://www.w3.org/2000/svg" viewBox="0 0 40 40"><defs><style>.cls-1{fill:#fff}</style></defs><g id="Слой_2" data-name="Слой 2"><g id="Слой_1-2" data-name="Слой 1"><path class="cls-1" d="M20 40a20 20 0 1120-20 20 20 0 01-20 20zM20 .89A19.11 19.11 0 1039.11 20 19.13 19.13 0 0020 .89z"/><path class="cls-1" d="M25 26.31a.43.43 0 01-.26-.09.44.44 0 01-.1-.62l4.05-5.6-4.08-5.6a.44.44 0 01.72-.52l4.27 5.86a.45.45 0 010 .52l-4.27 5.87a.44.44 0 01-.36.18z"/><path class="cls-1" d="M29.24 20.45h-11a.45.45 0 110-.89h11a.45.45 0 010 .89zm-18.48 9.46a.44.44 0 01-.44-.44V10.54a.45.45 0 11.89 0v18.93a.45.45 0 01-.45.44z"/><path class="cls-1" d="M22.66 29.91h-11.9a.45.45 0 010-.89h11.9a.45.45 0 010 .89zm0-18.91h-11.9a.45.45 0 010-.89h11.9a.45.45 0 010 .89z"/></g></g></svg>