<svg width="40" height="40" fill="none" xmlns="http://www.w3.org/2000/svg"><path class="cls-1" d="M22.5 45A22.5 22.5 0 1145 22.5 22.52 22.52 0 0122.5 45zm0-44A21.5 21.5 0 1044 22.5 21.52 21.52 0 0022.5 1z"/><path class="cls-1" d="M28.09 29.6a.49.49 0 01-.3-.1.51.51 0 01-.11-.7l4.59-6.3-4.59-6.3a.5.5 0 11.81-.59l4.8 6.6a.49.49 0 010 .59l-4.8 6.59a.48.48 0 01-.4.21z"/><path class="cls-1" d="M32.89 23H20.48a.5.5 0 01-.5-.5.51.51 0 01.5-.5h12.41a.5.5 0 01.5.5.5.5 0 01-.5.5zM12.11 33.65a.5.5 0 01-.5-.5v-21.3a.5.5 0 01.5-.5.51.51 0 01.5.5v21.3a.51.51 0 01-.5.5z"/><path class="cls-1" d="M25.49 33.65H12.11a.5.5 0 01-.5-.5.5.5 0 01.5-.5h13.38a.5.5 0 01.5.5.5.5 0 01-.5.5zm0-21.3H12.11a.5.5 0 01-.5-.5.5.5 0 01.5-.5h13.38a.5.5 0 01.5.5.5.5 0 01-.5.5z"/></svg>