<svg width="21" height="22" fill="none" xmlns="http://www.w3.org/2000/svg"><path d="M19.925 8.922l-1.474-.25a8.318 8.318 0 00-.592-1.43l.868-1.216a1.293 1.293 0 00-.14-1.671L17.28 3.048a1.288 1.288 0 00-1.667-.14l-1.22.868a8.236 8.236 0 00-1.482-.61l-.246-1.456A1.296 1.296 0 0011.384.626H9.537c-.636 0-1.176.456-1.28 1.084L8.001 3.2c-.492.154-.97.355-1.426.601L5.37 2.933a1.288 1.288 0 00-.755-.24 1.28 1.28 0 00-.917.38L2.386 4.382a1.299 1.299 0 00-.14 1.672l.877 1.232A8.13 8.13 0 002.54 8.72l-1.456.245A1.296 1.296 0 000 10.246v1.847c0 .636.456 1.176 1.084 1.281l1.491.255c.154.491.355.97.601 1.425l-.864 1.202a1.293 1.293 0 00.14 1.672l1.308 1.307a1.288 1.288 0 001.667.14l1.232-.877c.443.232.908.421 1.387.57l.245 1.474a1.296 1.296 0 001.281 1.084h1.851c.636 0 1.176-.456 1.281-1.084l.25-1.474c.496-.153.974-.35 1.43-.592l1.216.869c.219.158.482.241.754.241.347 0 .671-.136.917-.382l1.307-1.307a1.299 1.299 0 00.14-1.671l-.868-1.22c.241-.46.443-.939.592-1.43l1.474-.246A1.296 1.296 0 0021 12.05v-1.848a1.28 1.28 0 00-1.075-1.28zm-.1 3.127c0 .057-.04.106-.097.114l-1.843.307a.59.59 0 00-.474.435 7.022 7.022 0 01-.763 1.838.593.593 0 00.026.645l1.084 1.526a.12.12 0 01-.013.15l-1.307 1.307a.112.112 0 01-.084.035.108.108 0 01-.066-.022L14.766 17.3a.593.593 0 00-.645-.026 7.022 7.022 0 01-1.838.763.582.582 0 00-.434.474l-.312 1.843a.114.114 0 01-.114.096H9.577a.114.114 0 01-.115-.096l-.307-1.843a.589.589 0 00-.434-.474 7.289 7.289 0 01-1.799-.737.608.608 0 00-.298-.079.578.578 0 00-.342.11l-1.535 1.093a.131.131 0 01-.066.021.118.118 0 01-.084-.035L3.29 17.103a.119.119 0 01-.013-.15l1.08-1.513a.6.6 0 00.025-.649 6.957 6.957 0 01-.772-1.834.6.6 0 00-.473-.434l-1.856-.316a.114.114 0 01-.097-.114v-1.847c0-.057.04-.105.097-.114l1.83-.307a.593.593 0 00.477-.438 7.015 7.015 0 01.75-1.843.586.586 0 00-.03-.64L3.216 5.368a.12.12 0 01.013-.149l1.307-1.307a.111.111 0 01.083-.035.1.1 0 01.066.022L6.2 4.978a.6.6 0 00.649.026 6.957 6.957 0 011.834-.772.6.6 0 00.434-.474l.316-1.855a.114.114 0 01.114-.097h1.847c.057 0 .105.04.114.097l.307 1.829c.04.232.21.421.438.478a7.122 7.122 0 011.882.772c.202.119.452.11.645-.026l1.514-1.088a.13.13 0 01.066-.022c.017 0 .052.004.083.035l1.307 1.307a.12.12 0 01.013.15L16.68 6.86a.593.593 0 00-.026.645c.342.574.596 1.193.763 1.838a.581.581 0 00.474.434l1.842.311a.114.114 0 01.097.115v1.846h-.005z" fill="#BCBCBC"/><path d="M10.502 6.592a4.534 4.534 0 00-4.531 4.531c0 2.5 2.03 4.532 4.531 4.532 2.5 0 4.532-2.031 4.532-4.532 0-2.5-2.031-4.531-4.532-4.531zm0 7.879a3.35 3.35 0 01-3.347-3.348 3.35 3.35 0 013.347-3.347 3.35 3.35 0 013.347 3.347 3.35 3.35 0 01-3.347 3.348z" fill="#BCBCBC"/></svg>