<svg width="41" height="40" fill="none" xmlns="http://www.w3.org/2000/svg"><circle cx="20.058" cy="20" r="18.5" fill="#43494F" stroke="#283037" stroke-width="3"/><path d="M20.058 40c-11.022 0-20-8.978-20-20s8.978-20 20-20 20 8.978 20 20-8.978 20-20 20zm0-39.111C9.48.889.947 9.422.947 20c0 10.578 8.533 19.111 19.111 19.111 10.578 0 19.111-8.533 19.111-19.111C39.17 9.422 30.636.889 20.06.889z" fill="#DFB799" fill-opacity=".744"/><path d="M29.747 27.022H10.369c-.266 0-.444-.177-.444-.444s.178-.444.444-.444h19.467c.267 0 .444.177.444.444-.088.267-.266.444-.533.444zm0-6.578H10.369c-.266 0-.444-.177-.444-.444s.178-.445.444-.445h19.467c.267 0 .444.178.444.445-.088.267-.266.444-.533.444zm0-6.577H10.369c-.266 0-.444-.178-.444-.445 0-.266.178-.444.444-.444h19.467c.267 0 .444.178.444.444-.088.178-.266.445-.533.445z" fill="#DFB799"/></svg>