<svg xmlns="http://www.w3.org/2000/svg" viewBox="0 0 40 40"><g data-name="Слой 2"><path d="M20 .89A19.11 19.11 0 1039.11 20 19.13 19.13 0 0020 .89z" fill="#4c5156"/><path d="M20 0a20 20 0 1020 20A20 20 0 0020 0zm0 39.11A19.11 19.11 0 1139.11 20 19.13 19.13 0 0120 39.11z" fill="#3d4247"/><path d="M25.27 29.84H14.55a4.43 4.43 0 01-4.43-4.43V14.69a4.43 4.43 0 014.43-4.44h10.72a4.44 4.44 0 014.43 4.44v10.72a4.44 4.44 0 01-4.43 4.43zM14.55 12.2a2.5 2.5 0 00-2.49 2.49v10.72a2.49 2.49 0 002.49 2.48h10.72a2.48 2.48 0 002.48-2.48V14.69a2.49 2.49 0 00-2.48-2.49zm5.36 13A5.07 5.07 0 1125 20.1a5.07 5.07 0 01-5.09 5.07zm0-8.18A3.12 3.12 0 1023 20.1a3.11 3.11 0 00-3.09-3.1zm5.25-3.19a1.29 1.29 0 101.29 1.28 1.28 1.28 0 00-1.29-1.31z" fill="#b28e5d"/></g></svg>