<svg width="12" height="12" fill="none" xmlns="http://www.w3.org/2000/svg"><path fill-rule="evenodd" clip-rule="evenodd" d="M8.115 0H3.689C1.652 0 0 1.68 0 3.75v4.5C0 10.32 1.652 12 3.689 12h4.426c2.037 0 3.688-1.68 3.688-3.75v-4.5c0-2.07-1.651-3.75-3.688-3.75zm2.582 8.25c0 1.447-1.158 2.625-2.582 2.625H3.689c-1.424 0-2.582-1.178-2.582-2.625v-4.5c0-1.447 1.158-2.625 2.582-2.625h4.426c1.424 0 2.582 1.178 2.582 2.625v4.5zM5.902 3C4.272 3 2.95 4.343 2.95 6S4.272 9 5.9 9c1.63 0 2.951-1.343 2.951-3s-1.32-3-2.95-3zm0 4.875c-1.017 0-1.845-.841-1.845-1.875s.828-1.875 1.845-1.875c1.016 0 1.844.84 1.844 1.875 0 1.034-.828 1.875-1.844 1.875zm3.565-5.1c0 .22-.176.4-.393.4a.397.397 0 01-.393-.4c0-.22.176-.4.393-.4.217 0 .393.18.393.4z" fill="#BCBCBC"/></svg>