<svg width="40" height="40" fill="none" xmlns="http://www.w3.org/2000/svg"><path d="M20 40C8.978 40 0 31.022 0 20S8.978 0 20 0s20 8.978 20 20-8.978 20-20 20zM20 .889C9.422.889.889 9.422.889 20 .889 30.578 9.422 39.111 20 39.111c10.578 0 19.111-8.533 19.111-19.111C39.111 9.422 30.578.889 20 .889z" fill="#C4C4C4" fill-opacity=".8"/><path d="M15.467 26.31C12 26.31 9.156 23.468 9.156 20c0-3.467 2.844-6.311 6.31-6.311 2.312 0 4.445 1.333 5.512 3.378h6.844c1.6 0 2.934 1.333 2.934 2.933 0 1.51-1.067 2.755-2.578 2.933H28l-.178-.178-.889-1.066-1.155 1.422-1.156-1.333-.977 1.155h-2.578c-1.156 2.045-3.29 3.378-5.6 3.378zm0-11.732A5.387 5.387 0 0010.044 20c0 3.022 2.4 5.422 5.423 5.422 2.133 0 4-1.155 4.889-3.111l.088-.267h2.667l1.422-1.689 1.156 1.334 1.155-1.334 1.423 1.6c.889-.266 1.6-1.066 1.6-2.044a2.012 2.012 0 00-2.045-2.045h-7.377l-.09-.266c-.888-1.867-2.755-3.022-4.888-3.022z" fill="#C4C4C4" fill-opacity=".8"/><path d="M13.778 21.689c-.978 0-1.69-.8-1.69-1.69 0-.977.8-1.688 1.69-1.688.978 0 1.689.8 1.689 1.689.089.978-.711 1.689-1.69 1.689zm0-2.49c-.445 0-.8.356-.8.8 0 .445.355.8.8.8.444 0 .8-.355.8-.8 0-.444-.356-.8-.8-.8z" fill="#C4C4C4" fill-opacity=".8"/></svg>