<svg xmlns="http://www.w3.org/2000/svg" viewBox="0 0 25.27 23.06"><defs><style>.cls-1{fill:#b3b3b3}.cls-2{fill:#b28e5d}.cls-3,.cls-4{fill:#c4c4c4}.cls-4{opacity:.47}</style></defs><g id="Слой_2" data-name="Слой 2"><g id="Слой_11" data-name="Слой 11"><path class="cls-1" d="M16.38 8.35l-3.28 3.28 1.42 1.42 3.28-3.28zm-.38 2.9a.67.67 0 01-.5.21.71.71 0 01-.51-.21.73.73 0 010-1 .74.74 0 01.51-.2.7.7 0 01.5.2.71.71 0 010 1zm-.06 6.2a1.15 1.15 0 01-.86-1.92l-.45-.46-.42.42.4.4v.06a1.35 1.35 0 001.66 1.66h.06l.4.4.41-.42-.45-.45a1.13 1.13 0 01-.75.31z"/><path class="cls-2" d="M16.59 15.05a.08.08 0 01-.08 0 1.36 1.36 0 00-.91-.05.06.06 0 01-.06 0l-.41-.4-.41.41.46.46a1.15 1.15 0 011.62 1.62l.46.46.41-.41-.4-.41a.06.06 0 010-.06 1.42 1.42 0 00-.08-.91.06.06 0 010-.08l1.21-1.21-.6-.6z"/><path class="cls-1" d="M22.2 16.3a1.13 1.13 0 01-.34.81 1.15 1.15 0 01-1.58.05l-.46.45.42.42.4-.4h.06A1.35 1.35 0 0022.36 16v-.06l.4-.4-.42-.42-.45.46a1.13 1.13 0 01.31.72z"/><path class="cls-2" d="M15 7a6.76 6.76 0 00-3.28 3.28l.33.33 3.28-3.31z"/><path class="cls-1" transform="rotate(-45 13.97 9.223)" d="M11.66 8.96h4.64v.54h-4.64z"/><path class="cls-2" transform="rotate(-45 14.45 9.705)" d="M12.13 9.43h4.64v.54h-4.64z"/><path class="cls-2" transform="rotate(-45 22.54 9.704)" d="M22.27 7.38h.54v4.64h-.54z"/><path class="cls-1" d="M19.19 9.77l1.29 1.29.7.7 1.29 1.29 1.42-1.42-3.28-3.28zm1.8.47a.72.72 0 011 0 .71.71 0 010 1 .7.7 0 01-1 0 .71.71 0 01.01-1z"/><path class="cls-2" d="M16 11.8l2.59 2.6 1.26 1.25a.06.06 0 010 .08 1.42 1.42 0 00-.08.91.06.06 0 010 .06l-.4.41.41.41.46-.46a1.15 1.15 0 011.62-1.62l.46-.46-.41-.41-.41.4a.06.06 0 01-.06 0 1.42 1.42 0 00-.91.09.08.08 0 01-.08 0l-3.9-3.86zM22 7l-.33.33 3.28 3.28.33-.33A6.76 6.76 0 0022 7z"/><path class="cls-1" transform="rotate(-45 23.02 9.224)" d="M22.74 6.91h.54v4.64h-.54z"/><path class="cls-2" transform="rotate(-45.03 19.812 12.425)" d="M18.51 12h2.61v.85h-2.61z"/><path class="cls-2" d="M15.5 10a.74.74 0 00-.51.2.73.73 0 000 1 .71.71 0 00.51.21.67.67 0 00.5-.21.71.71 0 000-1 .7.7 0 00-.5-.2zm.41 1.12a.58.58 0 01-.41.17.57.57 0 01-.41-.17.57.57 0 010-.82.57.57 0 01.41-.17.58.58 0 01.41.17.59.59 0 010 .86zm5.58.34a.67.67 0 00.5-.21.71.71 0 000-1 .72.72 0 00-1 0 .71.71 0 000 1 .67.67 0 00.5.21zm-.41-1.12a.58.58 0 01.41-.17.57.57 0 01.41.17.57.57 0 010 .82.57.57 0 01-.41.17.58.58 0 01-.41-.17.57.57 0 010-.82z"/><path class="cls-3" d="M15.84 4.85H2.41v-.19c0-.58.68-1.09 2-1.48a14 14 0 012.18-.43l.3-1A2.42 2.42 0 017.71.47a2.36 2.36 0 013.68 1.23l.31 1.05a14.25 14.25 0 012.18.43c1.28.39 2 .9 2 1.48zm-13-.37h12.58a2.86 2.86 0 00-1.65-.94 13.62 13.62 0 00-2.36-.44L11 1.81a2 2 0 00-3.81 0L6.85 3.1a13.73 13.73 0 00-2.37.44 2.86 2.86 0 00-1.65.94zm6.3-1.23a1.21 1.21 0 010-2.42 1.21 1.21 0 010 2.42zm0-2A.84.84 0 1010 2a.83.83 0 00-.87-.79z"/><path class="cls-4" d="M5.13 9.25h5.29v.37H5.13z"/><path class="cls-2" d="M4.48 7.53a15.34 15.34 0 00-2.08 2.68l-.48-.88a.19.19 0 00-.32 0 .21.21 0 000 .19l.63 1.16a.19.19 0 00.32 0A14.69 14.69 0 014.74 7.8a.2.2 0 000-.27.2.2 0 00-.26 0z"/><path class="cls-4" d="M5.13 14.24h6.29v.37H5.13z"/><path class="cls-2" d="M4.48 12.5a15.34 15.34 0 00-2.08 2.68l-.48-.87a.19.19 0 00-.32 0 .23.23 0 000 .2l.63 1.15a.18.18 0 00.32 0 14.69 14.69 0 012.19-2.88.19.19 0 00-.26-.27z"/><path class="cls-4" d="M5.13 19.21h7.47v.37H5.13z"/><path class="cls-2" d="M4.48 17.48a15.29 15.29 0 00-2.08 2.67l-.48-.87a.19.19 0 00-.32 0 .21.21 0 000 .19l.63 1.15a.18.18 0 00.32 0 15.31 15.31 0 012.19-2.88.19.19 0 000-.26.18.18 0 00-.26 0z"/><path class="cls-3" d="M18.25 8.06V4.48H0v18.58h18.25V19.3h-.37v3.38H.37V4.85h17.51v3.21z"/></g></g></svg>