<svg xmlns="http://www.w3.org/2000/svg" viewBox="0 0 26.42 23.06"><defs><style>.cls-1{fill:#c4c4c4}.cls-2{fill:#c69c6d}.cls-3{fill:#b28e5d}</style></defs><g id="Слой_2" data-name="Слой 2"><path class="cls-1" d="M20.14 16.89l-.08-.18a.39.39 0 01.09-.47l.33-.3-.48-.47-.34.3a.53.53 0 01-.53.08l-.2-.08a.44.44 0 01-.3-.39V15h-.72v.43a.44.44 0 01-.32.4l-.19.07a.55.55 0 01-.52-.08l-.33-.3-.52.46.33.31a.4.4 0 01.09.48l-.08.18a.49.49 0 01-.44.27h-.46v.66h.47a.48.48 0 01.44.28l.08.18a.39.39 0 01-.09.47l-.33.3.51.47.34-.3a.51.51 0 01.33-.12.65.65 0 01.2 0l.2.08a.43.43 0 01.3.39v.42h.73v-.42a.46.46 0 01.31-.4l.2-.07a.55.55 0 01.52.08l.33.3.52-.46-.33-.31a.4.4 0 01-.09-.48l.08-.18a.49.49 0 01.44-.27H21v-.66h-.47a.48.48 0 01-.39-.29zm-1.9 1.65a1 1 0 111.13-1 1.09 1.09 0 01-1.13 1z" id="Слой_8" data-name="Слой 8"/><g id="Слой_11" data-name="Слой 11"><path class="cls-2" d="M16 7.64l-3.84 3.84 1.66 1.66 3.86-3.84zM15.58 11a.83.83 0 01-1.18-1.14.83.83 0 011.18 1.14zm-1.17-5a8.31 8.31 0 00-2.26 1.58 8.44 8.44 0 00-1.59 2.26l.39.39 3.84-3.84z"/><path class="cls-1" transform="rotate(-45 13.21 8.668)" d="M10.49 8.35h5.43v.63h-5.43z"/><path class="cls-2" d="M19.31 9.3l1.51 1.51.82.82 1.51 1.51 1.66-1.66L21 7.64zm2.1.56A.83.83 0 0122.59 11a.83.83 0 01-1.18-1.18zM22.58 6l-.38.39 3.8 3.87.38-.39A7.91 7.91 0 0022.58 6z"/><path class="cls-1" transform="rotate(-45 23.79 8.666)" d="M23.47 5.95h.63v5.43h-.63z"/><path class="cls-1" d="M20.47 12.69l-1.16 1.16-.7-.71-.07.07.7.7 1.23-1.22zm-2 .45l-.7.71-1.16-1.16 1.22 1.22.71-.7-.07-.07z"/><path class="cls-1" d="M20.77 10.98l-2.16 2.16.7.71 1.16-1.16 1-1-.7-.71zm-4.46 0l-.7.71 1 1 1.16 1.16.7-.71-2.16-2.16z"/><path class="cls-1" transform="rotate(-45 18.545 13.918)" d="M18.04 13.41h1v1h-1z"/><path class="cls-1" d="M16 4.85H2.44v-.19c0-.58.68-1.09 2-1.48a14.3 14.3 0 012.2-.43l.31-1A2.36 2.36 0 017.78.47 2.4 2.4 0 0111.5 1.7l.31 1.05a14.8 14.8 0 012.2.43c1.29.39 2 .9 2 1.48zM2.86 4.48h12.7a2.83 2.83 0 00-1.66-.94 13.78 13.78 0 00-2.39-.44l-.37-1.29a2 2 0 00-3.85 0L6.91 3.1a13.85 13.85 0 00-2.38.44 2.86 2.86 0 00-1.67.94zm6.35-1.23A1.21 1.21 0 1110.43 2a1.22 1.22 0 01-1.22 1.25zm0-2a.84.84 0 10.85.83.84.84 0 00-.85-.87zm-3.79 8h3.57v.37H5.42z"/><path class="cls-3" d="M4.52 7.53a15.52 15.52 0 00-2.1 2.68l-.48-.88a.19.19 0 00-.32 0 .17.17 0 000 .19l.63 1.16a.2.2 0 00.33 0A14.41 14.41 0 014.79 7.8a.2.2 0 000-.27.21.21 0 00-.27 0z"/><path class="cls-1" d="M5.42 14.24h5.95v.37H5.42z"/><path class="cls-3" d="M4.52 12.5a15.52 15.52 0 00-2.1 2.68l-.48-.87a.19.19 0 00-.32 0 .18.18 0 000 .2l.63 1.15a.19.19 0 00.33 0 14.41 14.41 0 012.21-2.88.19.19 0 000-.26.2.2 0 00-.27-.02z"/><path class="cls-1" d="M5.42 19.21h7.07v.37H5.42z"/><path class="cls-3" d="M4.52 17.48a15.47 15.47 0 00-2.1 2.67l-.48-.87a.19.19 0 00-.32 0 .17.17 0 000 .19l.63 1.15a.19.19 0 00.33 0 15 15 0 012.21-2.88.19.19 0 000-.26.19.19 0 00-.27 0z"/><path class="cls-1" d="M18.42 8.06V4.48H0v18.58h18.42V19.3h-.37v3.38H.38V4.85h17.67v3.21z"/></g></g></svg>