<svg xmlns="http://www.w3.org/2000/svg" viewBox="0 0 23.61 23.06"><defs><style>.cls-1{fill:#c4c4c4;}.cls-2{fill:#b28e5d;}</style></defs><title>Ресурс 11</title><g id="Слой_2" data-name="Слой 2"><g id="Слой_11" data-name="Слой 11"><path class="cls-1" d="M0,4.48V23.06H18.25V19.3h-.37v3.38H.37V4.85H17.88v6.28h.37V4.48Z"/><path class="cls-1" d="M15.84,4.85H2.41V4.66c0-.58.68-1.09,2-1.48a14,14,0,0,1,2.18-.43l.3-1A2.42,2.42,0,0,1,7.71.47,2.36,2.36,0,0,1,11.39,1.7l.31,1.05a14.25,14.25,0,0,1,2.18.43c1.28.39,2,.9,2,1.48Zm-13-.37H15.42a2.86,2.86,0,0,0-1.65-.94h0a13.62,13.62,0,0,0-2.36-.44L11,1.81a2,2,0,0,0-3.81,0L6.85,3.1a13.73,13.73,0,0,0-2.37.44A2.86,2.86,0,0,0,2.83,4.48Zm6.3-1.23a1.21,1.21,0,0,1,0-2.42,1.21,1.21,0,0,1,0,2.42Zm0-2A.84.84,0,1,0,10,2,.83.83,0,0,0,9.13,1.21Z"/><rect class="cls-1" x="5.13" y="9.26" width="8.67" height="0.37"/><path class="cls-2" d="M4.48,7.53A15.34,15.34,0,0,0,2.4,10.21l-.48-.88a.19.19,0,0,0-.32,0,.21.21,0,0,0,0,.19l.63,1.16a.19.19,0,0,0,.32,0A14.69,14.69,0,0,1,4.74,7.8a.2.2,0,0,0,0-.27A.2.2,0,0,0,4.48,7.53Z"/><rect class="cls-1" x="5.13" y="14.24" width="6.29" height="0.37"/><path class="cls-2" d="M4.48,12.5A15.34,15.34,0,0,0,2.4,15.18l-.48-.87a.19.19,0,0,0-.32,0,.23.23,0,0,0,0,.2l.63,1.15a.18.18,0,0,0,.32,0,14.69,14.69,0,0,1,2.19-2.88.19.19,0,0,0-.26-.27Z"/><rect class="cls-1" x="5.13" y="19.21" width="7.47" height="0.37"/><path class="cls-2" d="M4.48,17.48A15.29,15.29,0,0,0,2.4,20.15l-.48-.87a.19.19,0,0,0-.32,0,.21.21,0,0,0,0,.19l.63,1.15a.18.18,0,0,0,.32,0,15.31,15.31,0,0,1,2.19-2.88.19.19,0,0,0,0-.26A.18.18,0,0,0,4.48,17.48Z"/><path class="cls-2" d="M21,14.44a3,3,0,0,0-2.72-2.22h-.37a3,3,0,0,0,0,6h.37A3,3,0,0,0,21,14.44Zm-2.72,3.4h-.37a2.63,2.63,0,0,1-.5-5.16,2.29,2.29,0,0,1,.5-.09h.37a2.63,2.63,0,0,1,0,5.25ZM21,14.44a3,3,0,0,0-2.72-2.22h-.37a3,3,0,0,0,0,6h.37A3,3,0,0,0,21,14.44Zm-2.72,3.4h-.37a2.63,2.63,0,0,1-.5-5.16,2.29,2.29,0,0,1,.5-.09h.37a2.63,2.63,0,0,1,0,5.25Zm5-.53A6.71,6.71,0,0,0,23.61,16l-1.09-.6a2.28,2.28,0,0,0,0-.37l1.09-.6a6.58,6.58,0,0,0-.35-1.3l-1.24,0a3.37,3.37,0,0,0-.19-.32l.64-1.07a6.54,6.54,0,0,0-.95-.95l-1.07.64a2,2,0,0,0-.32-.18s0-1.23,0-1.25a7,7,0,0,0-1.31-.35s-.55,1-.6,1.08h-.37c0-.08-.59-1.06-.6-1.09A6.58,6.58,0,0,0,16,10s0,1.22,0,1.25a2,2,0,0,0-.32.18l-1.07-.64a6.09,6.09,0,0,0-.95.95l.64,1.07a3.37,3.37,0,0,0-.19.32l-1.24,0a6.19,6.19,0,0,0-.35,1.3l1.09.6a2.28,2.28,0,0,0,0,.37L12.52,16a6.77,6.77,0,0,0,.35,1.3l1.24,0,.19.32-.64,1.06a6.65,6.65,0,0,0,.95,1S15.66,19,15.68,19l.32.18s0,1.22,0,1.24a5.85,5.85,0,0,0,1.3.35l.6-1.08h.37c0,.07.59,1.05.6,1.08a6.89,6.89,0,0,0,1.31-.35s0-1.21,0-1.24l.32-.18,1.06.63a6.08,6.08,0,0,0,.95-.95l-.64-1.07c.07-.1.13-.21.19-.31ZM22,18.63a4.42,4.42,0,0,1-.53.53l-1-.62a4.18,4.18,0,0,1-.68.4l0,1.21a6,6,0,0,1-.73.19l-.59-1.05h-.79l-.59,1.05a4.49,4.49,0,0,1-.72-.19l0-1.21a4,4,0,0,1-.69-.4l-1,.63a5.39,5.39,0,0,1-.53-.54l.62-1a4.14,4.14,0,0,1-.39-.68l-1.21,0a4.64,4.64,0,0,1-.2-.73L14,15.61a3.48,3.48,0,0,1,0-.79l-1.06-.59a4.52,4.52,0,0,1,.2-.72l1.21,0a4.7,4.7,0,0,1,.39-.69l-.62-1a5.3,5.3,0,0,1,.53-.53l1,.62a4.14,4.14,0,0,1,.68-.39l0-1.21a4.64,4.64,0,0,1,.73-.2l.59,1.06.21,0h.37l.21,0,.59-1.06a4.64,4.64,0,0,1,.73.2l0,1.21a4.14,4.14,0,0,1,.68.39l1-.62a4.42,4.42,0,0,1,.53.53l-.62,1a3.89,3.89,0,0,1,.4.69l1.21,0a6,6,0,0,1,.19.73l-1.06.59a3.48,3.48,0,0,1,0,.79l1.06.59a4.61,4.61,0,0,1-.19.73l-1.21,0a4.18,4.18,0,0,1-.4.68Zm-3.76-6.41h-.37a3,3,0,0,0,0,6h.37a3,3,0,0,0,0-6Zm0,5.62h-.37a2.63,2.63,0,0,1-.5-5.16,2.29,2.29,0,0,1,.5-.09h.37a2.63,2.63,0,0,1,0,5.25ZM21,14.44a3,3,0,0,0-2.72-2.22h-.37a3,3,0,0,0,0,6h.37A3,3,0,0,0,21,14.44Zm-2.72,3.4h-.37a2.63,2.63,0,0,1-.5-5.16,2.29,2.29,0,0,1,.5-.09h.37a2.63,2.63,0,0,1,0,5.25ZM21,14.44a3,3,0,0,0-2.72-2.22h-.37a3,3,0,0,0,0,6h.37A3,3,0,0,0,21,14.44Zm-2.72,3.4h-.37a2.63,2.63,0,0,1-.5-5.16,2.29,2.29,0,0,1,.5-.09h.37a2.63,2.63,0,0,1,0,5.25ZM21,14.44a3,3,0,0,0-2.72-2.22h-.37a3,3,0,0,0,0,6h.37A3,3,0,0,0,21,14.44Zm-2.72,3.4h-.37a2.63,2.63,0,0,1-.5-5.16,2.29,2.29,0,0,1,.5-.09h.37a2.63,2.63,0,0,1,0,5.25ZM21,14.44a3,3,0,0,0-2.72-2.22h-.37a3,3,0,0,0,0,6h.37A3,3,0,0,0,21,14.44Zm-2.72,3.4h-.37a2.63,2.63,0,0,1-.5-5.16,2.29,2.29,0,0,1,.5-.09h.37a2.63,2.63,0,0,1,0,5.25Z"/></g></g></svg>