<svg xmlns="http://www.w3.org/2000/svg" viewBox="0 0 26.42 23.06"><defs><style>.cls-1{fill:#c69c6d}.cls-2{fill:#c4c4c4}.cls-3{fill:#b28e5d}</style></defs><g id="Слой_2" data-name="Слой 2"><g id="Слой_11" data-name="Слой 11"><path class="cls-1" d="M16 7.64l-3.84 3.84 1.66 1.66 3.86-3.84zM15.58 11a.83.83 0 01-1.18-1.14.83.83 0 011.18 1.14zm-1.17-5a8.31 8.31 0 00-2.26 1.58 8.44 8.44 0 00-1.59 2.26l.39.39 3.84-3.84z"/><path class="cls-2" transform="rotate(-45 13.21 8.668)" d="M10.49 8.35h5.43v.63h-5.43z"/><path class="cls-2" transform="rotate(-45 13.771 9.226)" d="M11.05 8.91h5.43v.63h-5.43z"/><path class="cls-2" transform="rotate(-45 23.232 9.227)" d="M22.91 6.51h.63v5.43h-.63z"/><path class="cls-1" d="M19.31 9.3l1.51 1.51.82.82 1.51 1.51 1.66-1.66L21 7.64zm2.1.56A.83.83 0 0122.59 11a.83.83 0 01-1.18-1.18zM22.58 6l-.38.39 3.8 3.87.38-.39A7.91 7.91 0 0022.58 6z"/><path class="cls-2" transform="rotate(-45 23.79 8.666)" d="M23.47 5.95h.63v5.43h-.63z"/><path class="cls-2" d="M15.84 4.85H2.41v-.19c0-.58.68-1.09 2-1.48a14 14 0 012.18-.43l.3-1A2.42 2.42 0 017.71.47a2.36 2.36 0 013.68 1.23l.31 1.05a14.25 14.25 0 012.18.43c1.28.39 2 .9 2 1.48zm-13-.37h12.58a2.86 2.86 0 00-1.65-.94 13.62 13.62 0 00-2.36-.44L11 1.81a2 2 0 00-3.81 0L6.85 3.1a13.73 13.73 0 00-2.37.44 2.86 2.86 0 00-1.65.94zm6.3-1.23a1.21 1.21 0 010-2.42 1.21 1.21 0 010 2.42zm0-2A.84.84 0 1010 2a.83.83 0 00-.87-.79zm-3.77 8h3.54v.37H5.37z"/><path class="cls-3" d="M4.48 7.53a15.34 15.34 0 00-2.08 2.68l-.48-.88a.19.19 0 00-.32 0 .21.21 0 000 .19l.63 1.16a.19.19 0 00.32 0A14.69 14.69 0 014.74 7.8a.2.2 0 000-.27.2.2 0 00-.26 0z"/><path class="cls-2" d="M5.37 14.24h5.9v.37h-5.9z"/><path class="cls-3" d="M4.48 12.5a15.34 15.34 0 00-2.08 2.68l-.48-.87a.19.19 0 00-.32 0 .23.23 0 000 .2l.63 1.15a.18.18 0 00.32 0 14.69 14.69 0 012.19-2.88.19.19 0 00-.26-.27z"/><path class="cls-2" d="M5.37 19.21h7v.37h-7z"/><path class="cls-3" d="M4.48 17.48a15.29 15.29 0 00-2.08 2.67l-.48-.87a.19.19 0 00-.32 0 .21.21 0 000 .19l.63 1.15a.18.18 0 00.32 0 15.31 15.31 0 012.19-2.88.19.19 0 000-.26.18.18 0 00-.26 0z"/><path class="cls-2" d="M18.25 8.06V4.48H0v18.58h18.25V19.3h-.37v3.38H.37V4.85h17.51v3.21zm2.22 4.63l-1.16 1.16-.7-.71-.07.07.7.7 1.23-1.22z"/><path class="cls-2" d="M18.47 13.14l-.7.71-1.16-1.16 1.22 1.22.71-.7-.07-.07zm2.3-2.16l-2.16 2.16.7.71 1.16-1.16 1-1-.7-.71z"/><path class="cls-2" d="M16.31 10.98l-.7.71 1 1 1.16 1.16.7-.71-2.16-2.16z"/><path class="cls-2" transform="rotate(-45 18.545 13.918)" d="M18.04 13.41h1v1h-1z"/><path class="cls-2" d="M18.28 16.77h.4a3.24 3.24 0 003-2.71h-6.39c0 .11 0 .21.07.32a3.22 3.22 0 002.92 2.39z"/><path class="cls-1" d="M18.28 17.93a2.67 2.67 0 00.4 0h.22l.64 1.13a5.64 5.64 0 00.78-.21v-1.29a4.38 4.38 0 00.73-.43l1.12.67a7.66 7.66 0 00.57-.57l-.67-1.12a4.2 4.2 0 00.43-.74h1.3a5.41 5.41 0 00.2-.77l-1-.54h-1.33a3.24 3.24 0 01-3 2.71h-.4a3.22 3.22 0 01-2.92-2.39c0-.11 0-.21-.07-.32H14l-1 .55a5.64 5.64 0 00.21.78h1.3a4.11 4.11 0 00.43.73l-.67 1.12a7.66 7.66 0 00.57.57l1.12-.67a4.11 4.11 0 00.73.43v1.3q.39.12.78.21l.63-1.14z"/></g></g></svg>