<svg xmlns="http://www.w3.org/2000/svg" viewBox="0 0 24.42 23.06"><defs><style>.cls-1{fill:#c4c4c4}.cls-2{fill:#b28e5d}.cls-3{fill:#c69c6d}</style></defs><g id="Слой_2" data-name="Слой 2"><g id="Слой_11" data-name="Слой 11"><path class="cls-1" d="M15.84 4.85H2.41v-.19c0-.58.68-1.09 2-1.48a14 14 0 012.18-.43l.3-1A2.42 2.42 0 017.71.47a2.36 2.36 0 013.68 1.23l.31 1.05a14.25 14.25 0 012.18.43c1.28.39 2 .9 2 1.48zm-13-.37h12.58a2.86 2.86 0 00-1.65-.94 13.62 13.62 0 00-2.36-.44L11 1.81a2 2 0 00-3.81 0L6.85 3.1a13.73 13.73 0 00-2.37.44 2.86 2.86 0 00-1.65.94zm6.3-1.23a1.21 1.21 0 010-2.42 1.21 1.21 0 010 2.42zm0-2A.84.84 0 1010 2a.83.83 0 00-.87-.79zm-4.01 8h5.29v.37H5.13z"/><path class="cls-2" d="M4.48 7.53a15.34 15.34 0 00-2.08 2.68l-.48-.88a.19.19 0 00-.32 0 .21.21 0 000 .19l.63 1.16a.19.19 0 00.32 0A14.69 14.69 0 014.74 7.8a.2.2 0 000-.27.2.2 0 00-.26 0z"/><path class="cls-1" d="M5.13 14.24h6.29v.37H5.13z"/><path class="cls-2" d="M4.48 12.5a15.34 15.34 0 00-2.08 2.68l-.48-.87a.19.19 0 00-.32 0 .23.23 0 000 .2l.63 1.15a.18.18 0 00.32 0 14.69 14.69 0 012.19-2.88.19.19 0 00-.26-.27z"/><path class="cls-1" d="M5.13 19.21h7.47v.37H5.13z"/><path class="cls-2" d="M4.48 17.48a15.29 15.29 0 00-2.08 2.67l-.48-.87a.19.19 0 00-.32 0 .21.21 0 000 .19l.63 1.15a.18.18 0 00.32 0 15.31 15.31 0 012.19-2.88.19.19 0 000-.26.18.18 0 00-.26 0z"/><path class="cls-3" d="M15.43 15.64a.1.1 0 01-.09 0 1.53 1.53 0 00-1-.09.07.07 0 01-.07 0l-.43-.43-.46.45.5.49a1.26 1.26 0 011.77 1.78l.5.49.45-.45-.43-.43a.07.07 0 010-.07 1.53 1.53 0 00-.09-1 .09.09 0 010-.09L17.4 15l-.65-.65zM21.54 17a1.27 1.27 0 01-.36.89 1.26 1.26 0 01-.89.37 1.24 1.24 0 01-.84-.32l-.49.5.45.45.43-.44a.1.1 0 01.07 0 1.65 1.65 0 00.38 0 1.46 1.46 0 001-.43 1.49 1.49 0 00.39-1.42.06.06 0 010-.07l.43-.44-.45-.45-.5.5a1.22 1.22 0 01.38.86z"/><path class="cls-3" d="M14.74 12.1l2.82 2.82 1.37 1.37a.07.07 0 010 .09 1.46 1.46 0 00-.08 1 .1.1 0 010 .07l-.44.43.45.45.5-.49a1.26 1.26 0 011.77-1.78l.5-.49-.45-.45-.44.43a.06.06 0 01-.07 0 1.53 1.53 0 00-1 .09.08.08 0 01-.08 0l-4.2-4.2zm-.01 6.15A1.26 1.26 0 0113.47 17a1.22 1.22 0 01.32-.83l-.5-.5-.45.45.44.44a.08.08 0 010 .07 1.47 1.47 0 001.8 1.8.08.08 0 01.07 0l.44.44.45-.45-.5-.5a1.22 1.22 0 01-.81.33zm.47-9.92l-3.57 3.58 1.54 1.54 3.58-3.57zm-.41 3.17a.75.75 0 01-.55.23.76.76 0 01-.55-.23.78.78 0 010-1.1.76.76 0 01.55-.23.75.75 0 01.55.23.77.77 0 010 1.1z"/><path class="cls-3" transform="rotate(-45 12.587 9.286)" d="M10.06 9h5.06v.59h-5.06z"/><path class="cls-3" transform="rotate(-45 22.428 9.29)" d="M22.14 6.76h.59v5.06h-.59z"/><path class="cls-3" transform="rotate(-45.03 18.947 12.773)" d="M17.52 12.31h2.84v.93h-2.84z"/><path class="cls-3" d="M18.27 9.88l1.4 1.41.76.76 1.41 1.4 1.55-1.54-3.58-3.58zm1.95.52a.77.77 0 011.1 0 .78.78 0 010 1.1.77.77 0 01-1.1 0 .78.78 0 010-1.1z"/><path class="cls-1" d="M18.25 8.06V4.48H0v18.58h18.25V19.3h-.37v3.38H.37V4.85h17.51v3.21z"/></g></g></svg>