<svg xmlns="http://www.w3.org/2000/svg" viewBox="0 0 26.15 23.06"><defs><style>.cls-1{fill:#b28e5d;}.cls-2{fill:#c4c4c4;}</style></defs><title>Ресурс 21</title><g id="Слой_2" data-name="Слой 2"><g id="Слой_11" data-name="Слой 11"><path class="cls-1" d="M15.75,7.64l-3.84,3.84,1.66,1.66L17.41,9.3ZM15.31,11a.83.83,0,0,1-1.18-1.18A.83.83,0,0,1,15.31,11Z"/><path class="cls-1" d="M14.14,6a8.31,8.31,0,0,0-2.26,1.58,8.44,8.44,0,0,0-1.59,2.26l.39.39,3.84-3.84Z"/><rect class="cls-2" x="10.22" y="8.35" width="5.43" height="0.63" transform="translate(-2.34 11.69) rotate(-45)"/><path class="cls-1" d="M19,9.3l1.51,1.51.82.82h0l1.51,1.51,1.66-1.66L20.7,7.64Zm2.1.56A.83.83,0,0,1,22.32,11a.83.83,0,0,1-1.18-1.18Z"/><path class="cls-1" d="M22.31,6l-.38.39,3.84,3.84.38-.39A7.91,7.91,0,0,0,22.31,6Z"/><rect class="cls-2" x="23.2" y="5.95" width="0.63" height="5.43" transform="translate(0.76 19.17) rotate(-45)"/><polygon class="cls-2" points="20.2 12.69 19.04 13.85 18.34 13.14 18.27 13.21 18.97 13.91 20.2 12.69 20.2 12.69"/><polygon class="cls-2" points="18.2 13.14 17.5 13.85 16.34 12.69 16.34 12.69 17.56 13.91 18.27 13.21 18.2 13.14"/><polygon class="cls-2" points="20.5 10.98 18.34 13.14 19.04 13.85 20.2 12.69 21.2 11.69 20.5 10.98"/><polygon class="cls-2" points="16.04 10.98 15.34 11.69 16.34 12.69 17.5 13.85 18.2 13.14 16.04 10.98"/><rect class="cls-2" x="17.77" y="13.41" width="1" height="1" transform="translate(-4.49 17) rotate(-45)"/><path class="cls-2" d="M16,4.85H2.44V4.66c0-.58.68-1.09,2-1.48a14.3,14.3,0,0,1,2.2-.43l.31-1A2.36,2.36,0,0,1,7.78.47,2.4,2.4,0,0,1,11.5,1.7l.31,1.05a14.8,14.8,0,0,1,2.2.43c1.29.39,2,.9,2,1.48ZM2.86,4.48h12.7a2.83,2.83,0,0,0-1.66-.94h0a13.78,13.78,0,0,0-2.39-.44l-.37-1.29a2,2,0,0,0-3.85,0L6.91,3.1a13.85,13.85,0,0,0-2.38.44A2.86,2.86,0,0,0,2.86,4.48ZM9.21,3.25A1.21,1.21,0,1,1,10.43,2,1.22,1.22,0,0,1,9.21,3.25Zm0-2a.84.84,0,1,0,.85.83A.84.84,0,0,0,9.21,1.21Z"/><rect class="cls-2" x="5.42" y="9.25" width="3.57" height="0.37"/><path class="cls-1" d="M4.52,7.53a15.52,15.52,0,0,0-2.1,2.68l-.48-.88a.19.19,0,0,0-.32,0,.17.17,0,0,0,0,.19l.63,1.16a.2.2,0,0,0,.33,0A14.41,14.41,0,0,1,4.79,7.8a.2.2,0,0,0,0-.27A.21.21,0,0,0,4.52,7.53Z"/><rect class="cls-2" x="5.42" y="14.24" width="5.95" height="0.37"/><path class="cls-1" d="M4.52,12.5a15.52,15.52,0,0,0-2.1,2.68l-.48-.87a.19.19,0,0,0-.32,0,.18.18,0,0,0,0,.2l.63,1.15a.19.19,0,0,0,.33,0,14.41,14.41,0,0,1,2.21-2.88.19.19,0,0,0,0-.26A.2.2,0,0,0,4.52,12.5Z"/><rect class="cls-2" x="5.42" y="19.21" width="7.07" height="0.37"/><path class="cls-1" d="M4.52,17.48a15.47,15.47,0,0,0-2.1,2.67l-.48-.87a.19.19,0,0,0-.32,0,.17.17,0,0,0,0,.19l.63,1.15a.19.19,0,0,0,.33,0,15,15,0,0,1,2.21-2.88.19.19,0,0,0,0-.26A.19.19,0,0,0,4.52,17.48Z"/><path class="cls-2" d="M18.42,8.06V4.48H0V23.06H18.42V19.3h-.37v3.38H.38V4.85H18.05V8.06Z"/><path class="cls-1" d="M20.39,15.8l-.09-.2a.44.44,0,0,1,.11-.53l.37-.34-.58-.53-.38.33a.57.57,0,0,1-.6.09L19,14.54a.49.49,0,0,1-.34-.45v-.47h-.82v.48a.51.51,0,0,1-.36.46l-.22.08a.61.61,0,0,1-.59-.1l-.37-.33-.59.52.37.34a.45.45,0,0,1,.1.55l-.09.21a.54.54,0,0,1-.49.31h-.53v.75h.53a.55.55,0,0,1,.5.33l.09.2a.45.45,0,0,1-.11.54l-.37.33.58.53.38-.33a.54.54,0,0,1,.38-.14.51.51,0,0,1,.22.05l.23.08a.49.49,0,0,1,.34.45v.47h.83v-.47a.49.49,0,0,1,.36-.45l.22-.09a.61.61,0,0,1,.59.1l.37.33.59-.52L20.41,18a.45.45,0,0,1-.1-.55l.09-.21a.54.54,0,0,1,.49-.31h.53v-.74h-.53A.55.55,0,0,1,20.39,15.8Zm-2.15,1.88a1.18,1.18,0,1,1,1.29-1.17A1.23,1.23,0,0,1,18.24,17.68Z"/></g></g></svg>