<svg xmlns="http://www.w3.org/2000/svg" viewBox="0 0 26.42 23.06"><defs><style>.cls-1{fill:#c4c4c4}.cls-2{fill:#b28e5d}.cls-3{fill:#c69c6d}</style></defs><g id="Слой_2" data-name="Слой 2"><g id="Слой_11" data-name="Слой 11"><path class="cls-1" d="M15.84 4.85H2.41v-.19c0-.58.68-1.09 2-1.48a14 14 0 012.18-.43l.3-1A2.42 2.42 0 017.71.47a2.36 2.36 0 013.68 1.23l.31 1.05a14.25 14.25 0 012.18.43c1.28.39 2 .9 2 1.48zm-13-.37h12.58a2.86 2.86 0 00-1.65-.94 13.62 13.62 0 00-2.36-.44L11 1.81a2 2 0 00-3.81 0L6.85 3.1a13.73 13.73 0 00-2.37.44 2.86 2.86 0 00-1.65.94zm6.3-1.23a1.21 1.21 0 010-2.42 1.21 1.21 0 010 2.42zm0-2A.84.84 0 1010 2a.83.83 0 00-.87-.79zm-3.27 8h4.25v.37H5.87z"/><path class="cls-2" d="M4.48 7.53a15.34 15.34 0 00-2.08 2.68l-.48-.88a.19.19 0 00-.32 0 .21.21 0 000 .19l.63 1.16a.19.19 0 00.32 0A14.69 14.69 0 014.74 7.8a.2.2 0 000-.27.2.2 0 00-.26 0z"/><path class="cls-1" d="M5.87 14.24h5.05v.37H5.87z"/><path class="cls-2" d="M4.48 12.5a15.34 15.34 0 00-2.08 2.68l-.48-.87a.19.19 0 00-.32 0 .23.23 0 000 .2l.63 1.15a.18.18 0 00.32 0 14.69 14.69 0 012.19-2.88.19.19 0 00-.26-.27z"/><path class="cls-1" d="M5.87 19.21h6v.37h-6z"/><path class="cls-2" d="M4.48 17.48a15.29 15.29 0 00-2.08 2.67l-.48-.87a.19.19 0 00-.32 0 .21.21 0 000 .19l.63 1.15a.18.18 0 00.32 0 15.31 15.31 0 012.19-2.88.19.19 0 000-.26.18.18 0 00-.26 0z"/><path class="cls-1" d="M18.25 8.06V4.48H0v18.58h18.25V19.3h-.37v3.38H.37V4.85h17.51v3.21z"/><path class="cls-3" d="M16 8.64l-3.84 3.84 1.66 1.66 3.84-3.84zM15.58 12a.83.83 0 01-1.18-1.18.83.83 0 011.18 1.18zm-.07 7.29a1.33 1.33 0 01-1.35-1.35 1.32 1.32 0 01.34-.89l-.5-.54-.49.49.47.47a.06.06 0 010 .07 1.59 1.59 0 001.94 1.94.08.08 0 01.08 0l.46.47.49-.49-.54-.46a1.36 1.36 0 01-.9.29zm.75-2.8a.07.07 0 01-.09 0 1.61 1.61 0 00-1.06-.09.11.11 0 01-.08 0l-.47-.47-.48.48.53.54a1.35 1.35 0 011.91 1.9l.53.53.48-.48-.47-.47a.19.19 0 010-.08 1.55 1.55 0 00-.06-1.07.08.08 0 010-.09l1.41-1.42-.7-.7zm6.57 1.45a1.33 1.33 0 01-1.35 1.35 1.36 1.36 0 01-.9-.34l-.53.53.48.49.47-.47a.08.08 0 01.08 0 1.83 1.83 0 00.4.05 1.59 1.59 0 001.54-2 .06.06 0 010-.07l.47-.47-.49-.5-.53.54a1.32 1.32 0 01.36.89zM14.41 7a8.31 8.31 0 00-2.26 1.58 8.44 8.44 0 00-1.59 2.26l.39.39 3.84-3.84z"/><path class="cls-3" transform="rotate(-45 13.766 10.228)" d="M11.05 9.91h5.43v.63h-5.43z"/><path class="cls-3" transform="rotate(-45 23.227 10.23)" d="M22.91 7.51h.63v5.43h-.63z"/><path class="cls-3" d="M19.31 10.3l1.51 1.51.82.82 1.51 1.51 1.66-1.66L21 8.64zm2.1.56A.83.83 0 0122.59 12a.83.83 0 01-1.18-1.18zm-5.89 1.83l3 3 1.48 1.5a.08.08 0 010 .09 1.61 1.61 0 00-.1 1.06.08.08 0 010 .08l-.46.47.48.48.53-.53a1.35 1.35 0 01.08-1.84 1.31 1.31 0 01.95-.4 1.32 1.32 0 01.9.35l.53-.54-.48-.48-.47.47a.11.11 0 01-.08 0 1.61 1.61 0 00-1.06.09.07.07 0 01-.09 0L16.22 12zM22.58 7l-.38.39 3.8 3.87.38-.39A7.91 7.91 0 0022.58 7z"/><path class="cls-3" transform="rotate(-45.03 20.04 13.41)" d="M18.51 12.91h3.05v1h-3.05z"/></g></g></svg>