<svg width="40" height="40" fill="none" xmlns="http://www.w3.org/2000/svg"><path d="M20 40C8.978 40 0 31.022 0 20S8.978 0 20 0s20 8.978 20 20-8.978 20-20 20zM20 .889C9.422.889.889 9.422.889 20 .889 30.578 9.422 39.111 20 39.111c10.578 0 19.111-8.533 19.111-19.111C39.111 9.422 30.578.889 20 .889z" fill="#C4C4C4" fill-opacity=".8"/><path d="M25.956 29.867c-3.823 0-7.823-1.778-10.934-4.89-3.289-3.288-5.067-7.288-4.889-11.288v-.178l.09-.089c.266-.355.532-.622.8-.978 1.066-1.066 2.221-1.866 3.644-2.31.088-.09.266-.09.444-.09.444 0 1.244.267 1.422.711.445 1.334 1.067 3.112 1.511 4.712.09.355 0 1.244-.444 1.51L16 18.134c-.089.09-.178.178-.178.267-.089.267.089.622.267.889.622.889 1.333 1.689 2.133 2.489.8.8 1.689 1.51 2.489 2.133.445.356.978.356 1.156.089l.977-1.6c.267-.444.978-.444 1.245-.444h.267c2.044.444 3.288.888 4.8 1.51.444.178.8 1.245.622 1.778a12.076 12.076 0 01-2.311 3.645c-.267.267-.623.533-.978.8l-.09.089-.444.089zM11.022 13.955c0 3.645 1.6 7.467 4.622 10.4l.09.09c2.933 2.933 6.666 4.622 10.31 4.622h.09c.266-.178.533-.445.71-.623.978-.977 1.69-2.044 2.134-3.288.089-.178-.09-.623-.178-.712-1.422-.622-2.578-.977-4.533-1.422-.267 0-.534.09-.623.09l-.977 1.51c-.445.711-1.6.8-2.49.178-.888-.622-1.777-1.422-2.577-2.222-.8-.89-1.6-1.69-2.222-2.578-.356-.533-.534-1.067-.445-1.6.09-.356.267-.711.534-.889l1.6-.978c0-.089.088-.444.088-.533-.444-1.6-1.066-3.378-1.51-4.711 0 0-.356-.089-.623-.089h-.089c-1.244.444-2.4 1.244-3.289 2.133a1.371 1.371 0 00-.622.623z" fill="#C4C4C4" fill-opacity=".8"/></svg>