<svg width="45" height="45" fill="none" xmlns="http://www.w3.org/2000/svg"><path d="M22.5 45C10.1 45 0 34.9 0 22.5S10.1 0 22.5 0 45 10.1 45 22.5 34.9 45 22.5 45zm0-44C10.6 1 1 10.6 1 22.5S10.6 44 22.5 44 44 34.4 44 22.5 34.4 1 22.5 1z" fill="#C4C4C4" fill-opacity=".8"/><path d="M29.2 33.6c-4.3 0-8.8-2-12.3-5.5-3.7-3.7-5.7-8.2-5.5-12.7v-.2l.1-.1c.3-.4.6-.7.9-1.1 1.2-1.2 2.5-2.1 4.1-2.6.1-.1.3-.1.5-.1.5 0 1.4.3 1.6.8.5 1.5 1.2 3.5 1.7 5.3.1.4 0 1.4-.5 1.7L18 20.4c-.1.1-.2.2-.2.3-.1.3.1.7.3 1 .7 1 1.5 1.9 2.4 2.8.9.9 1.9 1.7 2.8 2.4.5.4 1.1.4 1.3.1l1.1-1.8c.3-.5 1.1-.5 1.4-.5h.3c2.3.5 3.7 1 5.4 1.7.5.2.9 1.4.7 2-.6 1.5-1.5 2.9-2.6 4.1-.3.3-.7.6-1.1.9l-.1.1-.5.1zM12.4 15.7c0 4.1 1.8 8.4 5.2 11.7l.1.1c3.3 3.3 7.5 5.2 11.6 5.2h.1c.3-.2.6-.5.8-.7 1.1-1.1 1.9-2.3 2.4-3.7.1-.2-.1-.7-.2-.8-1.6-.7-2.9-1.1-5.1-1.6-.3 0-.6.1-.7.1l-1.1 1.7c-.5.8-1.8.9-2.8.2-1-.7-2-1.6-2.9-2.5-.9-1-1.8-1.9-2.5-2.9-.4-.6-.6-1.2-.5-1.8.1-.4.3-.8.6-1l1.8-1.1c0-.1.1-.5.1-.6-.5-1.8-1.2-3.8-1.7-5.3 0 0-.4-.1-.7-.1h-.1c-1.4.5-2.7 1.4-3.7 2.4-.2.1-.5.3-.7.7z" fill="#C4C4C4" fill-opacity=".8"/></svg>