<svg xmlns="http://www.w3.org/2000/svg" viewBox="0 0 40 40"><defs><style>.cls-1{fill:#fff}</style></defs><g id="Слой_2" data-name="Слой 2"><g id="Слой_2-2" data-name="Слой 2"><path class="cls-1" d="M20 40a20 20 0 1120-20 20 20 0 01-20 20zM20 .89A19.11 19.11 0 1039.11 20 19.13 19.13 0 0020 .89z"/><path class="cls-1" d="M13.81 26.45a.44.44 0 01-.32-.13.47.47 0 01-.13-.34l.23-3.91a.51.51 0 01.13-.29l11.65-11.65a.48.48 0 01.32-.13.44.44 0 01.31.13l3.68 3.68a.46.46 0 01.13.31.48.48 0 01-.13.32L18 26.09a.41.41 0 01-.29.13l-3.91.23zm.66-4.16l-.19 3.25 3.24-.19 11.22-11.23-3-3-11.27 11.17z"/><path class="cls-1" d="M27.29 16.27a.43.43 0 01-.31-.13l-3.31-3.3a.45.45 0 010-.63.43.43 0 01.63 0l3.31 3.31a.44.44 0 01-.32.75zM15.66 26.3h-.09a.43.43 0 01-.34-.51v-.14a1 1 0 00-.27-.8 1 1 0 00-.83-.27h-.11a.45.45 0 01-.52-.37.46.46 0 01.37-.51h.16a1.89 1.89 0 011.55.53 1.86 1.86 0 01.53 1.53V26a.47.47 0 01-.45.36z"/><path class="cls-1" d="M29.7 30.15H10.3a.45.45 0 01-.45-.45V10.3a.45.45 0 01.45-.45h9.63a.45.45 0 010 .89h-9.19v18.52h18.52v-9.19a.45.45 0 01.89 0v9.63a.45.45 0 01-.45.45z"/></g></g></svg>