<svg width="21" height="12" fill="none" xmlns="http://www.w3.org/2000/svg"><g clip-path="url(#clip0)"><path d="M20.175.525h-3.407a.76.76 0 00-.678.407s-1.36 2.52-1.795 3.372c-1.174 2.283-1.936 1.576-1.936.507V1.156a1.159 1.159 0 00-.332-.816 1.142 1.142 0 00-.808-.34H8.654a2.04 2.04 0 00-1.826.848S8.132.636 8.132 2.401c0 .44.024 1.698.045 2.754a.766.766 0 01-.478.723.752.752 0 01-.84-.198A22.592 22.592 0 014.271.95a.716.716 0 00-.644-.425H.522a.519.519 0 00-.52.464.519.519 0 00.032.25c.94 2.6 4.988 10.774 9.612 10.774h1.946a.78.78 0 00.543-.236.792.792 0 00.224-.552v-1.183a.766.766 0 01.456-.697.752.752 0 01.817.143l2.327 2.204c.213.2.493.31.783.308h3.047c1.477 0 1.477-1.03.673-1.84-.566-.56-2.608-2.73-2.608-2.73a1.054 1.054 0 01-.081-1.38c.66-.874 1.74-2.306 2.196-2.918.627-.828 1.759-2.607.206-2.607z" fill="#BCBCBC"/></g><defs><clipPath id="clip0"><path fill="#fff" d="M0 0h21v12H0z"/></clipPath></defs></svg>