<svg xmlns="http://www.w3.org/2000/svg" viewBox="0 0 41.22 41.22"><g data-name="Слой 2"><path d="M20.61 1.5a19.11 19.11 0 1019.11 19.11A19.13 19.13 0 0020.61 1.5z" fill="#3f4142" stroke="gray" stroke-miterlimit="10" stroke-width="3"/><path d="M20.61.61a20 20 0 1020 20 20 20 0 00-20-20zm0 39.11a19.11 19.11 0 1119.11-19.11 19.13 19.13 0 01-19.11 19.11z" fill="#666"/><path d="M30.35 28.23A7.77 7.77 0 0128 28a9.4 9.4 0 01-1.83-1.67c-1.06-1.11-1.74-1.79-2.19-1.79-1.19.23-1.3 1.7-1.38 2.68a3.39 3.39 0 01-.12.81 5.17 5.17 0 01-1.57.16 14.57 14.57 0 01-1.56-.08c-3.75-.63-6-3.1-8.27-6.62-4.21-6.6-3.66-7.3-3.65-7.31a6.7 6.7 0 012.4-.28h2.4c.34.16 1.42 2.5 2 3.63.33.72.6 1.29.75 1.54.71 1.13 1.32 1.69 1.89 1.69.79 0 1.06-1.07 1.08-1.27.43-4.61-.44-5.36-1.46-5.52.64-.91 2.66-1 3.56-1h.67a7.75 7.75 0 011.72.61c.08.06.33.33.29 1.77v.74c-.06 1.83-.13 3.72.44 4.32a.72.72 0 00.49.22c.93 0 2.14-1.94 3-3.57.26-.51.51-1 .73-1.47a9.11 9.11 0 01.77-1.59 20.26 20.26 0 012.8-.11h.62a6.45 6.45 0 012.12.21c.38.32-.16 1.54-1.63 3.62-.26.37-.59.77-.92 1.18-.88 1.1-1.71 2.1-1.63 2.86s.82 1.34 1.77 2.26c1.17 1.14 2.63 2.55 2.45 3.62-.08.52-.89.57-2.12.57h-1.27z" fill="#b28e5d"/><path d="M20 13.24h.61a8.08 8.08 0 011.63.57s.22.25.19 1.56v.74c-.08 2.31-.09 3.87.51 4.5a1 1 0 00.68.3c.31 0 1.27 0 3.21-3.71.27-.51.51-1 .74-1.48a13.41 13.41 0 01.77-1.46 26.51 26.51 0 012.66-.08h.62a6.41 6.41 0 012 .15s.38.37-1.67 3.29c-.26.36-.58.75-.92 1.16-.91 1.12-1.77 2.17-1.68 3s.86 1.45 1.85 2.41 2.53 2.46 2.38 3.4c-.06.35-1.12.36-1.89.36h-1.26a8 8 0 01-2.25-.23 10.77 10.77 0 01-1.74-1.61c-1.27-1.33-1.84-1.87-2.37-1.87h-.13c-1.29.25-1.42 1.83-1.5 2.89 0 .2 0 .47-.07.62a5.41 5.41 0 01-1.37.12c-.61 0-1.21 0-1.5-.07-3.68-.62-5.91-3.05-8.12-6.51-3.34-5.24-3.62-6.69-3.64-7a7.7 7.7 0 012.18-.2h2.29a22 22 0 011.83 3.48c.34.73.6 1.31.76 1.57.77 1.23 1.44 1.81 2.11 1.81.89 0 1.28-1 1.33-1.5.36-3.9-.16-5.25-1.22-5.66a5.86 5.86 0 012.98-.55m0-.5c-1.17 0-3.51.16-3.94 1.47.77.1 2.1-.15 1.59 5.28 0 .16-.24 1.05-.83 1.05-.39 0-.94-.38-1.68-1.57-.47-.75-2.28-5.27-2.91-5.29H9.87a6.48 6.48 0 00-2.52.31c-.67.38.9 3.5 3.56 7.67 2.18 3.4 4.48 6.06 8.45 6.73a15.55 15.55 0 001.59.08 4.71 4.71 0 001.71-.21c.43-.21-.09-3.16 1.33-3.43.69 0 3 3.08 3.93 3.44a7.74 7.74 0 002.43.27H31c1.36-.05 2.89.11 3-.8.33-2-4.09-4.68-4.22-5.94-.1-.91 1.61-2.57 2.5-3.83 1.09-1.54 2.26-3.39 1.59-4a5.3 5.3 0 00-2.28-.26H31a18.16 18.16 0 00-2.9.13A18.44 18.44 0 0026.33 17c-.91 1.75-2 3.44-2.76 3.44-.93 0-.72-2.9-.66-5 0-1.41-.19-1.85-.4-2a7.9 7.9 0 00-1.85-.66h-.68z" fill="#4d4d4d"/></g></svg>