<svg xmlns="http://www.w3.org/2000/svg" viewBox="0 0 40 40"><g data-name="Слой 2"><path d="M20 .89A19.11 19.11 0 1039.11 20 19.13 19.13 0 0020 .89z" fill="#4c5156"/><path d="M20 0a20 20 0 1020 20A20 20 0 0020 0zm0 39.11A19.11 19.11 0 1139.11 20 19.13 19.13 0 0120 39.11z" fill="#3d4247"/><g style="mix-blend-mode:multiply"><path d="M29.74 30.87a9.11 9.11 0 01-3.54-.48 5.46 5.46 0 01-1.66-1.12 3 3 0 01-1.19 1 6.8 6.8 0 01-3 .51c-.74 0-1.46 0-1.88-.08h-.2c-5.24-.88-8.14-4.4-10.49-8.08-4.38-6.82-4.46-8.48-4.12-9.83a3.28 3.28 0 011.59-2.08 8.22 8.22 0 014-.69h2.45a3.06 3.06 0 012 .78c1-1 2.73-1.73 5.65-1.73h1.15l.24.06a9.66 9.66 0 012.81 1.08 3.52 3.52 0 011.22 1.4 3.24 3.24 0 011.55-1.3c.78-.3 1.61-.33 4-.34H31c1.79 0 3.14.07 4.21 1 2.86 2.42.21 6.18-1.06 8-.3.43-.68.9-1.07 1.37l-.36.44.25.25c1.63 1.57 3.85 3.72 3.4 6.47-.53 3.27-4 3.29-5.31 3.3h-1.32z" fill="#fff"/><path d="M5.29 10.8A6.44 6.44 0 018 10.15a11.77 11.77 0 011.31 0c.64 0 1.34.11 2 .15h.39a3.87 3.87 0 011.7.5 2.54 2.54 0 01.34.23 4.65 4.65 0 012.66-1.45 10.53 10.53 0 013-.36h1.16l.25.06a10.68 10.68 0 011.44.49 8.25 8.25 0 011.29.69A3.87 3.87 0 0124.7 12a4 4 0 01.38-.44 3.48 3.48 0 011.19-.83 5.56 5.56 0 011.87-.37c.54-.05 1.2-.1 2.08-.12h.63a14.42 14.42 0 012.24.11 4 4 0 012 .83 3.56 3.56 0 011 4 15.09 15.09 0 01-2.16 4c-.29.42-.65.89-1 1.36-.09.13-.21.28-.34.44a2.89 2.89 0 01.25.24c1.62 1.56 3.84 3.7 3.4 6.41a3.39 3.39 0 01-2.19 2.72 8.37 8.37 0 01-3.15.49h-1.27a8.77 8.77 0 01-3.5-.55 5.86 5.86 0 01-.78-.42 7.85 7.85 0 01-.87-.65 3.22 3.22 0 01-1.17 1 4.19 4.19 0 01-1.4.45 10.46 10.46 0 01-1.59.1c-.74 0-1.45-.05-1.88-.09h-.2c-5.2-.87-8.07-4.37-10.41-8-4.26-6.67-4.37-8.35-4.06-9.7a3.13 3.13 0 011.52-2.18z" fill="#fdfdfd"/><path d="M5.34 10.88a6.67 6.67 0 012.82-.63 6.62 6.62 0 011.3.09c.65.09 1.35.21 2 .25 0 0 .38 0 .39.05a6.27 6.27 0 011.72.48l.32.2a4 4 0 012.45-1.61 9.39 9.39 0 013-.39 6.67 6.67 0 01.92 0h.24l.25.06a7 7 0 011.41.54 7.59 7.59 0 011.25.73 4 4 0 011.14 1.47q.18-.21.39-.42a4.07 4.07 0 011.2-.84 6.15 6.15 0 011.85-.43c.54-.07 1.2-.15 2.05-.2h.63a16.43 16.43 0 012.26.1 4 4 0 012 .82 3.48 3.48 0 01.92 4 16.53 16.53 0 01-2.17 4c-.28.42-.62.88-1 1.35-.09.12-.21.27-.32.43l.25.24c1.6 1.55 3.81 3.68 3.38 6.34a3.32 3.32 0 01-2.21 2.66 8.25 8.25 0 01-3.15.46h-1.11a8.21 8.21 0 01-3.46-.63 7.22 7.22 0 01-.78-.41 7.7 7.7 0 01-.86-.62A3.33 3.33 0 0123.28 30a3.64 3.64 0 01-1.37.48 10.23 10.23 0 01-1.58.1 17.76 17.76 0 01-1.87-.09h-.2c-5.16-.87-8-4.34-10.35-8-4.17-6.53-4.32-8.22-4-9.57a3 3 0 011.43-2.04z" fill="#fcfcfc"/><path d="M5.39 11a6.69 6.69 0 012.89-.62 5.09 5.09 0 011.3.15 18.93 18.93 0 002 .36s.37.05.39.07a12.53 12.53 0 011.73.46c.1.06.21.1.31.17a3.46 3.46 0 012.31-1.71 8.32 8.32 0 013.09-.43 5.26 5.26 0 01.93.06h.25l.25.07a5.39 5.39 0 011.37.58 9 9 0 011.21.78 4.47 4.47 0 011.11 1.5c.12-.12.24-.25.38-.38a5.27 5.27 0 011.22-.86 6.72 6.72 0 011.87-.49c.54-.09 1.19-.21 2-.28a4.34 4.34 0 01.62-.06 15.31 15.31 0 012.27.1 3.85 3.85 0 012.09.79c1.3 1.09 1.28 2.58.83 4a17.76 17.76 0 01-2.18 4c-.27.41-.59.87-.9 1.33l-.3.43c.08.08.17.16.24.24 1.6 1.55 3.8 3.66 3.37 6.28a3.2 3.2 0 01-2.24 2.59 8.55 8.55 0 01-3.14.44h-1.25a8 8 0 01-3.41-.75c-.27-.13-.53-.27-.77-.41a7.63 7.63 0 01-.87-.57 3.76 3.76 0 01-2.44 1.57 10.09 10.09 0 01-1.57.1c-.73 0-1.44 0-1.87-.08h-.19c-5.12-.86-8-4.3-10.29-7.95-4.09-6.42-4.28-8.13-4-9.48a2.9 2.9 0 011.39-2z" fill="#fafafa"/><path d="M5.44 11.05a7.08 7.08 0 013-.61 4.66 4.66 0 011.3.22 13.82 13.82 0 002 .47s.37.06.39.08c.78.3 1.3.25 1.75.45l.3.13A3.1 3.1 0 0116.31 10a7.89 7.89 0 013.14-.47 4.13 4.13 0 01.94.08h.25l.26.07a4.59 4.59 0 011.33.64 8.54 8.54 0 011.16.82 4.82 4.82 0 011.08 1.53l.39-.34a6 6 0 011.22-.87 7 7 0 011.82-.56 15.54 15.54 0 012-.35 3.33 3.33 0 01.61-.09 17.56 17.56 0 012.3.09 4 4 0 012.12.77c1.27 1.08 1.21 2.58.74 4a19.79 19.79 0 01-2.19 4l-.85 1.32-.28.42.24.24c1.59 1.54 3.79 3.63 3.37 6.21A3.16 3.16 0 0133.69 30a8.66 8.66 0 01-3.14.41h-.57l-.67-.05a7.78 7.78 0 01-3.39-.73c-.27-.13-.53-.27-.77-.41s-.58-.33-.86-.52a3.67 3.67 0 01-1.08 1.07 3.27 3.27 0 01-1.29.54 10 10 0 01-1.57.11c-.73 0-1.44-.05-1.86-.09h-.2C13.21 29.45 10.4 26 8.07 22.4c-4-6.26-4.22-8-4-9.33a2.76 2.76 0 011.37-2.02z" fill="#f8f8f8"/><path d="M5.48 11.14a7.23 7.23 0 013-.6 3.73 3.73 0 011.3.27 11.44 11.44 0 002 .59s.37.07.39.1a11.54 11.54 0 001.76.43 1.76 1.76 0 01.3.1 2.87 2.87 0 012-1.92 7.46 7.46 0 013.2-.5 4.7 4.7 0 011 .08h.24l.26.08a4.12 4.12 0 011.31.68 10.94 10.94 0 011.11.87 5.54 5.54 0 011 1.57c.11-.09.25-.19.39-.32a8.17 8.17 0 011.26-.84 8 8 0 011.8-.62 14.24 14.24 0 012-.43 2.71 2.71 0 01.61-.11 16.46 16.46 0 012.32.08 4.07 4.07 0 012.15.76c1.25 1.05 1.14 2.57.65 4a21.86 21.86 0 01-2.2 4l-.79 1.32-.26.42.24.23c1.57 1.53 3.77 3.61 3.35 6.15a3.1 3.1 0 01-2.3 2.46 8.55 8.55 0 01-3.13.39h-.56c-.23 0-.45 0-.67-.06a7.43 7.43 0 01-3.35-.79c-.27-.13-.53-.28-.77-.41s-.58-.3-.85-.47a4.16 4.16 0 01-1.06 1.08 2.94 2.94 0 01-1.25.57 9.74 9.74 0 01-1.56.11c-.72 0-1.43 0-1.86-.08h-.19c-5-.84-7.84-4.23-10.16-7.86-3.9-6.12-4.17-7.86-4-9.21a2.65 2.65 0 011.32-2.12z" fill="#f7f7f7"/><path d="M5.53 11.22a7.41 7.41 0 013.1-.58 3.28 3.28 0 011.3.33 9.59 9.59 0 002 .7s.36.08.39.11c.84.43 1.38.2 1.77.41l.29.07c.55-1.37 1-1.74 1.88-2a6.91 6.91 0 013.25-.54 4.16 4.16 0 011 .09h.25l.26.08a3.55 3.55 0 011.27.74 11.83 11.83 0 011.07.9 6.24 6.24 0 011 1.61 3.33 3.33 0 00.4-.28A9.33 9.33 0 0126 12a7.91 7.91 0 011.78-.68 12.12 12.12 0 011.94-.52c0-.07.58-.12.6-.13a18.72 18.72 0 012.35.07 4.19 4.19 0 012.18.74c1.22 1 1.08 2.56.56 4a25.32 25.32 0 01-2.21 3.95c-.23.4-.49.85-.74 1.31-.06.12-.15.26-.24.41l.24.23c1.54 1.53 3.71 3.62 3.31 6.08a3 3 0 01-2.33 2.4 8.63 8.63 0 01-3.13.36h-.56c-.22 0-.44 0-.66-.08a7.68 7.68 0 01-3.31-.84l-.78-.45c-.3-.16-.58-.28-.86-.44a4.21 4.21 0 01-1 1.1 2.82 2.82 0 01-1.21.6 9.74 9.74 0 01-1.56.11 17.92 17.92 0 01-1.85-.08h-.2c-5-.84-7.77-4.2-10.09-7.82-3.82-6-4.11-7.75-3.94-9.09a2.54 2.54 0 011.24-2.01z" fill="#f5f5f5"/><path d="M5.58 11.3a7.7 7.7 0 013.17-.56 2.89 2.89 0 011.3.39 8.61 8.61 0 002 .8c0 .05.36.1.39.14.87.5 1.41.2 1.79.39a.86.86 0 01.28 0c.54-1.51.94-1.85 1.74-2.12.75-.55 2.41-.57 3.31-.57a3.82 3.82 0 011 .1h.25L21 10a3.2 3.2 0 011.23.78 13.3 13.3 0 011 .95 7.15 7.15 0 011 1.65 3.47 3.47 0 00.4-.25 13.9 13.9 0 011.24-.91 9.34 9.34 0 011.77-.74 10.68 10.68 0 011.92-.6c0-.08.57-.14.59-.15a19.26 19.26 0 012.37.07 4.08 4.08 0 012.2.72c1.21 1 1 2.55.49 4A29 29 0 0133 19.5c-.22.4-.46.84-.68 1.29l-.22.41.23.23c1.56 1.52 3.74 3.57 3.34 6a3 3 0 01-2.35 2.34 8.81 8.81 0 01-3.13.34l-.55-.06L29 30a7.55 7.55 0 01-3.27-.91c-.27-.15-.53-.3-.76-.41s-.58-.25-.85-.39a4.5 4.5 0 01-1 1.11 2.47 2.47 0 01-1.17.63 10.62 10.62 0 01-1.55.12c-.72 0-1.42 0-1.85-.08h-.19c-5-.83-7.72-4.16-10-7.78-3.74-5.84-4.07-7.62-3.93-9a2.44 2.44 0 011.15-1.99z" fill="#f3f3f3"/><path d="M5.62 11.39a8 8 0 013.25-.56 2.92 2.92 0 011.3.46 8.08 8.08 0 001.95.91c0 .06.35.11.38.16.91.56 1.44.19 1.81.37h.27c.53-1.63.86-2 1.59-2.21.75-.61 2.51-.62 3.37-.62a3.51 3.51 0 011 .12h.25l.27.09a3 3 0 011.2.84 13.07 13.07 0 011 1 8.2 8.2 0 011 1.68 1.39 1.39 0 00.41-.22c.35-.25.74-.59 1.25-.92a10.15 10.15 0 011.75-.8 10.81 10.81 0 011.8-.69c.05-.09.56-.15.59-.16a17.78 17.78 0 012.39 0 4.18 4.18 0 012.23.7c1.18 1 1 2.55.4 4a34.72 34.72 0 01-2.24 4c-.21.39-.42.83-.63 1.28a3.72 3.72 0 01-.2.4l.24.23C33.79 23 36 25 35.58 27.43a2.94 2.94 0 01-2.39 2.27 8.85 8.85 0 01-3.12.31l-.55-.01-.64-.1a7.47 7.47 0 01-3.24-1c-.27-.15-.53-.3-.76-.41s-.58-.23-.84-.34a5.26 5.26 0 01-1 1.12 2.39 2.39 0 01-1.14.66 9.2 9.2 0 01-1.55.12c-.71 0-1.41 0-1.83-.08h-.19c-4.92-.83-7.66-4.13-10-7.74-3.65-5.7-4-7.5-3.91-8.85a2.37 2.37 0 011.2-1.99z" fill="#f2f2f2"/><path d="M5.67 11.47A8.29 8.29 0 019 10.93a2.69 2.69 0 011.29.52 8.29 8.29 0 001.94 1c0 .06.35.12.39.17.93.64 1.47.2 1.81.36h.26c.53-1.76.79-2.06 1.46-2.31.74-.65 2.6-.65 3.42-.65a4.18 4.18 0 011 .12s.23 0 .26.06a1.71 1.71 0 01.27.09 2.54 2.54 0 011.16.88c.3.35.67.67.94 1a9.21 9.21 0 01.91 1.71 1 1 0 00.42-.18c.35-.24.75-.59 1.26-.93a11.35 11.35 0 011.72-.87 10.54 10.54 0 011.87-.76c.06-.1.55-.17.58-.18a18.19 18.19 0 012.42 0 4.26 4.26 0 012.26.68c1.16 1 .88 2.55.31 4a41.66 41.66 0 01-2.25 3.94c-.2.39-.39.83-.57 1.28 0 .12-.12.25-.18.4l.23.22c1.54 1.5 3.71 3.52 3.32 5.88-.22 1.35-1.3 1.88-2.41 2.21a9 9 0 01-3.12.29l-.54-.08c-.21 0-.43-.06-.64-.11a7.27 7.27 0 01-3.2-1 6.28 6.28 0 00-.75-.4c-.31-.14-.59-.21-.85-.31a5.75 5.75 0 01-.99 1.16 2.34 2.34 0 01-1.1.69 8.33 8.33 0 01-1.55.12 17.91 17.91 0 01-1.83-.08h-.19c-4.87-.82-7.59-4.09-9.89-7.69-3.56-5.57-4-7.38-3.88-8.73a2.26 2.26 0 011.11-1.96z" fill="#f0f0f0"/><path d="M5.72 11.56A8.37 8.37 0 019.11 11a2.56 2.56 0 011.29.58 8.24 8.24 0 001.92 1.13c0 .07.35.13.39.19 1 .7 1.5.19 1.83.33l.25-.06c.52-1.9.71-2.17 1.32-2.42.73-.7 2.69-.68 3.47-.68a4 4 0 011 .13s.23 0 .26.06.25.07.28.09a2.54 2.54 0 011.13.94c.27.36.63.69.88 1.08a12 12 0 01.87 1.78 1 1 0 00.42-.15c.35-.23.76-.59 1.26-.95a13 13 0 011.71-.92 10.11 10.11 0 011.84-.85c.06-.11.55-.19.58-.2a16.85 16.85 0 012.43 0 4.21 4.21 0 012.3.66c1.14 1 .82 2.53.22 4s-1.82 3-2.26 3.93A12.43 12.43 0 0032 21c0 .11-.1.25-.16.39l.23.22c1.53 1.5 3.69 3.5 3.32 5.82-.22 1.33-1.32 1.82-2.45 2.14a9.06 9.06 0 01-3.11.26c-.17 0-.35-.05-.54-.08l-.63-.13a7.31 7.31 0 01-3.16-1.12 7.15 7.15 0 00-.75-.4 8.56 8.56 0 00-.84-.26A6.38 6.38 0 0123 29a2.07 2.07 0 01-1.06.72 8.94 8.94 0 01-1.54.13c-.7 0-1.4 0-1.82-.08h-.19c-4.83-.81-7.54-4.05-9.83-7.64-3.47-5.43-3.92-7.26-3.86-8.61a2.18 2.18 0 011.02-1.96z" fill="#efefef"/><path d="M5.77 11.64a8.68 8.68 0 013.46-.52 2.6 2.6 0 011.29.65A7.8 7.8 0 0012.43 13c0 .08.34.15.38.21 1 .78 1.53.2 1.85.32l.24-.1c.51-2 .63-2.28 1.18-2.51.72-.76 2.78-.72 3.52-.72a3.77 3.77 0 011 .14s.23 0 .27.06l.28.1a2.37 2.37 0 011.09 1c.26.38.6.73.84 1.13a13.54 13.54 0 01.85 1.78.72.72 0 00.43-.12c.35-.21.76-.58 1.27-.95a14.91 14.91 0 011.69-1 9.3 9.3 0 011.81-.92c.07-.13.54-.22.58-.23a18.62 18.62 0 012.45 0 4.32 4.32 0 012.32.64c1.12 1 .76 2.53.14 4s-1.85 3-2.27 3.93A8.46 8.46 0 0031.9 21l-.14.38.23.22c1.52 1.49 3.67 3.48 3.3 5.75-.21 1.31-1.34 1.77-2.47 2.08a9 9 0 01-3.11.24l-.53-.09-.63-.15a7.26 7.26 0 01-3.12-1.15 7.15 7.15 0 00-.75-.4 4.59 4.59 0 00-.83-.21 7.24 7.24 0 01-.85 1.19 2.05 2.05 0 01-1 .75 9 9 0 01-1.54.13c-.7 0-1.39 0-1.82-.08h-.24c-4.79-.81-7.47-4-9.76-7.6-3.38-5.3-3.86-7.14-3.84-8.49a2.11 2.11 0 01.97-1.93z" fill="#ededed"/><path d="M5.81 11.73a9 9 0 013.53-.51 2.46 2.46 0 011.3.71 8.13 8.13 0 001.89 1.34c.05.08.34.16.39.23 1 .84 1.55.19 1.86.3a1.1 1.1 0 01.23-.13c.5-2.16.55-2.39 1-2.62.72-.8 2.88-.76 3.59-.76a3.56 3.56 0 011 .16 2.61 2.61 0 01.27.06l.28.1a2.23 2.23 0 011.06 1c.24.39.57.75.8 1.16a19.78 19.78 0 01.82 1.83.62.62 0 00.43-.09 15.5 15.5 0 001.28-1 18.58 18.58 0 011.67-1.05 9.39 9.39 0 011.79-1c.07-.14.52-.23.56-.25a20.85 20.85 0 012.48 0 4.36 4.36 0 012.35.63c1.1.92.69 2.52 0 4s-1.89 3-2.28 3.93a7.21 7.21 0 00-.41 1.24 3.18 3.18 0 01-.11.38l.22.22c1.51 1.48 3.66 3.46 3.3 5.69-.21 1.29-1.36 1.71-2.5 2a9.1 9.1 0 01-3.11.21c-.17 0-.35-.06-.53-.1a4.57 4.57 0 01-.61-.16 7.35 7.35 0 01-3.09-1.2 4.11 4.11 0 00-.75-.41 4.23 4.23 0 00-.83-.17 8.33 8.33 0 01-.85 1.18 1.93 1.93 0 01-1 .78 7.92 7.92 0 01-1.53.13c-.69 0-1.39 0-1.82-.07h-.18c-4.75-.79-7.42-4-9.7-7.56-3.29-5.15-3.81-7-3.81-8.36a2 2 0 011.01-1.84z" fill="#ebebeb"/><path d="M5.86 11.81a9.15 9.15 0 013.6-.49 2.45 2.45 0 011.29.76 8.52 8.52 0 001.88 1.46c.06.09.34.17.39.24 1.05.91 1.58.2 1.87.29a2.68 2.68 0 01.23-.17c.49-2.29.47-2.49.89-2.71.71-.86 3-.8 3.64-.8a3.45 3.45 0 011 .17 2.14 2.14 0 01.27.06c.06 0 .25.08.29.11.34.12.65.43 1 1.08.23.4.54.79.76 1.21.32.64.55 1.32.78 1.86a.55.55 0 00.44-.05 10.24 10.24 0 001.28-1c.47-.37 1-.68 1.66-1.11a9.54 9.54 0 011.76-1.08c.08-.15.51-.25.56-.27a17.6 17.6 0 012.5 0 4.46 4.46 0 012.38.6c1.07.91.63 2.52 0 4s-1.93 3-2.3 3.92a6.31 6.31 0 00-.35 1.23c0 .11-.06.24-.1.38l.22.21c1.5 1.47 3.65 3.43 3.29 5.62-.21 1.27-1.37 1.67-2.53 1.95a9.19 9.19 0 01-3.1.19c-.17 0-.34-.07-.52-.11l-.61-.17a7.78 7.78 0 01-3.05-1.27 3.69 3.69 0 00-.74-.4 3.07 3.07 0 00-.83-.13 11 11 0 01-.82 1.19c-.3.37-.54.71-.95.81a7.74 7.74 0 01-1.52.13 18 18 0 01-1.81-.07h-.18c-4.71-.79-7.36-3.95-9.63-7.52C5.6 16.91 5 15 5 13.69a2 2 0 01.86-1.88z" fill="#eaeaea"/><path d="M5.91 11.9a9.44 9.44 0 013.67-.48c.35 0 .8.37 1.29.82a9.11 9.11 0 001.87 1.57c.06.09.33.19.38.26 1.08 1 1.62.2 1.89.26.08-.07.15-.14.22-.19.48-2.42.4-2.61.75-2.82.7-.91 3.06-.83 3.69-.83a3.76 3.76 0 011 .17l.28.07.29.11c.33.12.63.44 1 1.14.21.41.51.81.71 1.25.31.66.53 1.35.76 1.9a.48.48 0 00.43 0 7.57 7.57 0 001.3-1c.47-.39 1-.72 1.64-1.18a11.61 11.61 0 011.73-1.16c.09-.16.51-.27.55-.29a19.45 19.45 0 012.53 0 4.61 4.61 0 012.41.58c1 .89.56 2.52-.12 4s-2 3-2.31 3.91a6.33 6.33 0 00-.3 1.23 3 3 0 01-.07.37l.22.21c1.49 1.47 3.62 3.41 3.27 5.56-.2 1.25-1.38 1.61-2.55 1.88a9.32 9.32 0 01-3.1.16 3.84 3.84 0 01-.52-.12l-.6-.18a7.86 7.86 0 01-3-1.33 3.24 3.24 0 00-.74-.4 2.25 2.25 0 00-.82-.08c-.24.4-.51.81-.8 1.2s-.51.74-.9.84a8.47 8.47 0 01-1.52.14c-.69 0-1.38 0-1.81-.08h-.18c-4.67-.78-7.29-3.92-9.56-7.47-3.12-4.92-3.72-6.81-3.77-8.17a1.85 1.85 0 01.79-1.85z" fill="#e8e8e8"/><path d="M6 12a9.8 9.8 0 013.75-.47c.34 0 .8.4 1.29.89a8.77 8.77 0 001.85 1.67c.07.11.33.21.39.29 1.11 1 1.64.19 1.9.24l.2-.23c.48-2.55.33-2.71.62-2.92.69-.95 3.15-.86 3.74-.86a3.72 3.72 0 011 .18l.28.07c.06 0 .25.09.29.12.33.12.62.44 1 1.19.19.42.47.84.66 1.29.29.68.5 1.39.72 1.93a.45.45 0 00.44 0 6.51 6.51 0 001.31-1c.46-.4 1-.76 1.62-1.23a11.58 11.58 0 011.7-1.25c.1-.17.5-.29.55-.31a21.39 21.39 0 012.55 0 4.69 4.69 0 012.44.57c1 .87.5 2.5-.21 4s-2 3-2.32 3.91a5 5 0 00-.24 1.22c0 .11 0 .23-.06.36l.22.21c1.48 1.46 3.61 3.39 3.27 5.49-.2 1.23-1.41 1.56-2.58 1.82a9.22 9.22 0 01-3.1.14c-.16 0-.33-.08-.51-.13s-.4-.12-.6-.2a8.07 8.07 0 01-3-1.39 2.89 2.89 0 00-.74-.4 2.13 2.13 0 00-.82 0c-.23.4-.49.82-.76 1.22s-.49.77-.87.87a6.79 6.79 0 01-1.51.14 17.94 17.94 0 01-1.8-.07h-.18c-4.63-.78-7.24-3.89-9.5-7.43-3-4.74-3.66-6.65-3.75-8A1.83 1.83 0 016 12z" fill="#e6e6e6"/><path d="M6 12.07a9.75 9.75 0 013.82-.46c.34 0 .8.43 1.28 1a10.13 10.13 0 001.84 1.78c.07.11.33.22.39.3 1.14 1.12 1.67.2 1.92.23.07-.1.13-.19.19-.26.46-2.69.25-2.82.47-3 .69-1 3.25-.91 3.8-.91a4 4 0 011.05.2L21 11c.07 0 .25.09.3.13.32.12.6.45.92 1.23.18.43.44.87.62 1.34.26.7.46 1.42.69 2a.42.42 0 00.44.05 5.72 5.72 0 001.31-1c.47-.42 1-.81 1.61-1.3A11.94 11.94 0 0128.61 12c.1-.18.48-.3.54-.33a19.38 19.38 0 012.57 0 4.81 4.81 0 012.46.55c1 .85.44 2.5-.29 4s-2 3-2.33 3.91a4.08 4.08 0 00-.18 1.2v.36a2.08 2.08 0 00.21.21c1.47 1.45 3.6 3.37 3.26 5.42-.19 1.21-1.42 1.52-2.61 1.76a9.27 9.27 0 01-3.09.11 2.73 2.73 0 01-.55-.19c-.19-.07-.39-.13-.59-.22a8.17 8.17 0 01-2.93-1.45 3 3 0 00-.73-.4 1.86 1.86 0 00-.82 0c-.23.4-.48.82-.74 1.23s-.46.8-.82.89a6.23 6.23 0 01-1.51.15 17.94 17.94 0 01-1.8-.07h-.18c-4.58-.77-7.17-3.85-9.43-7.38-2.94-4.61-3.61-6.53-3.73-7.89A1.76 1.76 0 016 12.07z" fill="#e5e5e5"/><path d="M6.05 12.15c.74-.41 2.26-.39 3.89-.44.33 0 .79.45 1.28 1a10.4 10.4 0 001.83 1.89c.07.12.32.23.39.32 1.16 1.18 1.69.19 1.92.21l.19-.3c.45-2.81.17-2.92.33-3.12.68-1.05 3.34-.94 3.86-.94a4 4 0 011.05.21 2.45 2.45 0 01.29.08l.3.12c.31.12.58.46.88 1.29.16.44.41.9.57 1.38.25.72.44 1.45.66 2a.4.4 0 00.45.07 5.24 5.24 0 001.32-1c.46-.43 1-.84 1.59-1.36a13 13 0 011.65-1.41c.1-.19.48-.32.53-.34a17.78 17.78 0 012.59 0 4.82 4.82 0 012.5.53c1 .83.37 2.49-.38 4s-2.06 3-2.34 3.9a3.72 3.72 0 00-.13 1.19v.36l.22.2c1.46 1.44 3.58 3.35 3.25 5.36-.2 1.19-1.44 1.46-2.64 1.69a9.44 9.44 0 01-3.09.09 2.79 2.79 0 01-.5-.15c-.19-.07-.39-.14-.58-.23A8.3 8.3 0 0125 27.18a2.39 2.39 0 00-.73-.39 1.51 1.51 0 00-.81.05l-.71 1.24c-.26.43-.44.83-.79.92a6.54 6.54 0 01-1.5.16c-.68 0-1.36 0-1.79-.07h-.17c-4.55-.77-7.12-3.82-9.37-7.35-2.85-4.46-3.56-6.4-3.7-7.76-.1-.91.12-1.55.62-1.83z" fill="#e3e3e3"/><path d="M6.1 12.23c.73-.41 2.3-.37 4-.42.32 0 .79.48 1.28 1.07a11.88 11.88 0 001.81 2c.08.12.32.24.39.33 1.2 1.26 1.73.2 1.94.19a3 3 0 01.18-.32 11.51 11.51 0 00.19-3.22c.67-1.11 3.42-1 3.91-1a4.07 4.07 0 011.07.22c.06 0 .22.05.28.08a1.69 1.69 0 01.3.13c.31.12.57.46.85 1.33.15.46.38.93.53 1.42.23.74.41 1.5.62 2a.41.41 0 00.46.11 4.77 4.77 0 001.33-1.05c.46-.44 1-.88 1.57-1.42a12.72 12.72 0 011.62-1.48 1.09 1.09 0 01.53-.37 19.21 19.21 0 012.61 0 4.92 4.92 0 012.53.51c1 .81.31 2.49-.47 4s-2.1 3-2.35 3.89a3.28 3.28 0 00-.07 1.19v.35l.21.21c1.45 1.43 3.56 3.31 3.24 5.28-.19 1.17-1.45 1.41-2.67 1.63a9.49 9.49 0 01-3.08.06 3.05 3.05 0 01-.5-.15 5.51 5.51 0 01-.57-.25A8.72 8.72 0 0125 27a2.32 2.32 0 00-.74-.39 1.31 1.31 0 00-.81.1c-.22.4-.45.83-.67 1.25s-.41.86-.76.95a6.37 6.37 0 01-1.49.16 17.86 17.86 0 01-1.84-.07h-.17c-4.51-.76-7.06-3.78-9.31-7.3-2.76-4.36-3.51-6.31-3.68-7.7-.11-.86.08-1.5.57-1.77z" fill="#e1e1e1"/><path d="M6.14 12.32c.74-.41 2.34-.37 4-.42.33 0 .79.51 1.29 1.14a12.6 12.6 0 001.8 2.1c.08.14.31.26.38.36 1.23 1.32 1.76.2 2 .17l.17-.36c.43-3.08 0-3.14 0-3.32.67-1.16 3.52-1 4-1a4.39 4.39 0 011.08.22c.07 0 .22.06.28.09a1.81 1.81 0 01.31.13c.3.13.55.47.81 1.39.14.46.35 1 .49 1.46.21.76.37 1.53.59 2.08a.41.41 0 00.46.14 4.5 4.5 0 001.34-1.06c.46-.46 1-.93 1.55-1.48a13.71 13.71 0 011.59-1.57 1.12 1.12 0 01.52-.39 19.23 19.23 0 012.64 0 5.13 5.13 0 012.56.49c.94.8.24 2.49-.55 4s-2.14 3-2.37 3.89a3.08 3.08 0 000 1.18 3.31 3.31 0 010 .34l.2.21c1.44 1.42 3.55 3.29 3.24 5.22-.19 1.15-1.48 1.35-2.7 1.56a9.66 9.66 0 01-3.08 0 2.21 2.21 0 01-.49-.17 5.51 5.51 0 01-.57-.25 9.43 9.43 0 01-2.81-1.63 2.25 2.25 0 00-.73-.4 1.35 1.35 0 00-.81.14c-.22.4-.44.85-.65 1.27s-.38.89-.71 1a5.88 5.88 0 01-1.49.16c-.67 0-1.35 0-1.78-.06h-.18c-4.46-.75-7-3.75-9.24-7.26-2.67-4.19-3.45-6.16-3.66-7.52-.12-.96.06-1.59.52-1.85z" fill="#e0e0e0"/><path d="M6.19 12.4c.74-.41 2.38-.36 4.1-.4.32 0 .79.54 1.28 1.2a14.15 14.15 0 001.79 2.21c.09.14.31.27.39.37 1.25 1.39 1.78.2 2 .16s.11-.27.16-.39c.42-3.21-.07-3.25-.1-3.43.66-1.2 3.61-1 4-1a4.44 4.44 0 011.09.24l.29.09c.08 0 .25.1.31.14.29.12.54.48.78 1.43.12.48.31 1 .43 1.51.2.78.35 1.56.56 2.11a.41.41 0 00.47.17 3.85 3.85 0 001.34-1.07c.46-.47 1-1 1.54-1.54a14 14 0 011.57-1.65 1.13 1.13 0 01.51-.41 17.83 17.83 0 012.66 0 5.07 5.07 0 012.58.47c.92.78.19 2.48-.63 4s-2.18 3-2.38 3.89a2.71 2.71 0 000 1.16V22l.21.21c1.43 1.41 3.53 3.27 3.22 5.15-.18 1.13-1.49 1.31-2.72 1.5a9.49 9.49 0 01-3.08 0 2.39 2.39 0 01-.49-.17l-.56-.27a10.34 10.34 0 01-2.77-1.69 1.87 1.87 0 00-.73-.39 1.18 1.18 0 00-.8.18c-.22.4-.43.85-.62 1.28s-.36.92-.68 1a6.14 6.14 0 01-1.48.17 17.64 17.64 0 01-1.78-.07h-.17c-4.43-.74-6.94-3.71-9.17-7.21-2.59-4.06-3.41-6-3.64-7.4-.08-1.01.07-1.64.52-1.89z" fill="#dedede"/><path d="M6.24 12.49c.73-.41 2.41-.36 4.17-.39.31 0 .78.57 1.28 1.25a15.81 15.81 0 001.77 2.33c.09.15.31.28.39.39 1.29 1.46 1.81.2 2 .14l.16-.43c.41-3.34-.15-3.36-.24-3.52.65-1.26 3.7-1.09 4.07-1.09a4.51 4.51 0 011.1.25l.29.09a3.11 3.11 0 01.31.14c.28.13.53.49.75 1.49.11.49.28 1 .39 1.55a16.29 16.29 0 00.53 2.14.41.41 0 00.47.21A3.74 3.74 0 0025 16c.46-.48 1-1 1.52-1.6a16.37 16.37 0 011.54-1.73 1.19 1.19 0 01.51-.43 19.09 19.09 0 012.68 0 5.41 5.41 0 012.61.45c.9.76.12 2.47-.72 4-.76 1.35-2.21 3-2.39 3.88a2.6 2.6 0 00.09 1.15c0 .1 0 .22.07.34l.2.2c1.42 1.41 3.52 3.25 3.22 5.09-.19 1.11-1.51 1.25-2.76 1.43a9.6 9.6 0 01-3.07 0 1.84 1.84 0 01-.48-.19 5.84 5.84 0 01-.56-.28 11.11 11.11 0 01-2.73-1.75A1.87 1.87 0 0024 26a1.09 1.09 0 00-.8.23c-.21.4-.41.86-.59 1.28s-.33 1-.63 1.05a5.7 5.7 0 01-1.49.17 17.48 17.48 0 01-1.76-.07h-.18C14.18 28 11.69 25 9.46 21.52 7 17.6 6.1 15.6 5.84 14.24c-.17-.89-.04-1.51.4-1.75z" fill="#dcdcdc"/><path d="M6.28 12.57c.74-.41 2.46-.35 4.25-.38.31 0 .78.6 1.28 1.32A17.33 17.33 0 0013.57 16c.09.15.3.29.38.41 1.32 1.52 1.84.19 2 .11s.1-.31.14-.46c.41-3.47-.22-3.46-.37-3.62.64-1.31 3.79-1.12 4.13-1.12a4.67 4.67 0 011.1.26l.3.09a1.79 1.79 0 01.31.15c.27.13.52.49.71 1.53.1.5.25 1 .35 1.6a14.06 14.06 0 00.49 2.18.45.45 0 00.48.24A3.67 3.67 0 0025 16.22c.45-.5 1-1 1.5-1.67a19.71 19.71 0 011.5-1.81 1.25 1.25 0 01.5-.45 19 19 0 012.71-.06 5.52 5.52 0 012.64.44c.87.74.06 2.46-.81 4-.77 1.34-2.25 3-2.4 3.88a2.41 2.41 0 00.15 1.14c0 .1.05.21.08.33l.2.2c1.42 1.4 3.5 3.23 3.21 5-.18 1.09-1.52 1.2-2.78 1.37a9.42 9.42 0 01-3.07 0 2.15 2.15 0 01-.48-.19c-.17-.09-.35-.18-.54-.3a11.76 11.76 0 01-2.7-1.81 1.78 1.78 0 00-.72-.39 1.08 1.08 0 00-.8.27 12.42 12.42 0 00-.56 1.3c-.2.53-.31 1-.6 1.08a5.56 5.56 0 01-1.48.17c-.65 0-1.33 0-1.76-.06h-.17c-4.34-.73-6.82-3.64-9-7.13C7.13 17.68 6.23 15.67 6 14.3c-.24-.88-.13-1.5.28-1.73z" fill="#dbdbdb"/><path d="M6.33 12.66c.74-.41 2.49-.35 4.32-.37.3 0 .78.63 1.27 1.38a19.84 19.84 0 001.75 2.54 5.76 5.76 0 00.39.43c1.34 1.6 1.87.2 2 .1s.09-.34.13-.49c.4-3.6-.29-3.57-.52-3.72.64-1.36 3.89-1.16 4.19-1.16a5.12 5.12 0 011.11.27l.3.09.32.15c.26.13.5.5.67 1.59.08.51.22 1.08.31 1.64a12.29 12.29 0 00.43 2.21.42.42 0 00.48.27 3.28 3.28 0 001.36-1.11c.46-.51 1-1.09 1.49-1.73a22.49 22.49 0 011.48-1.89 1.27 1.27 0 01.5-.47 19.07 19.07 0 012.73-.06 5.68 5.68 0 012.67.41c.85.72 0 2.46-.9 4-.78 1.33-2.29 3-2.41 3.87a2.37 2.37 0 00.2 1.14c0 .1.07.21.11.32l.19.2c1.41 1.39 3.49 3.2 3.2 5-.17 1.07-1.54 1.15-2.81 1.3a9.53 9.53 0 01-3.06-.06 2.53 2.53 0 01-.47-.2c-.17-.09-.35-.2-.54-.32a13.41 13.41 0 01-2.66-1.87 1.66 1.66 0 00-.72-.39 1 1 0 00-.79.32 10 10 0 00-.54 1.31c-.18.54-.28 1-.56 1.11a5.41 5.41 0 01-1.47.18 17.26 17.26 0 01-1.75-.07h-.13c-4.3-.72-6.76-3.6-9-7.08-2.33-3.64-3.25-5.67-3.57-7-.19-1.01-.1-1.62.3-1.84z" fill="#d9d9d9"/><path d="M6.38 12.74c.73-.41 2.53-.37 4.39-.35.3 0 .77.65 1.27 1.44a23.62 23.62 0 001.73 2.65c.11.17.3.32.39.45 1.38 1.66 1.9.2 2 .08s.08-.36.12-.53c.39-3.73-.37-3.68-.66-3.82.63-1.41 4-1.2 4.24-1.2a6 6 0 011.12.28 2.65 2.65 0 01.3.11 1.6 1.6 0 01.32.15c.26.13.5.51.65 1.63.06.53.18 1.11.25 1.68a13 13 0 00.5 2.26.46.46 0 00.49.3 3.23 3.23 0 001.37-1.12c.46-.53 1-1.13 1.47-1.79a22.84 22.84 0 011.46-2 1.29 1.29 0 01.49-.49 18.61 18.61 0 012.72-.05 5.72 5.72 0 012.7.4c.83.7-.06 2.45-1 4-.79 1.32-2.32 2.95-2.42 3.86a2.21 2.21 0 00.26 1.12l.12.32.2.2c1.39 1.38 3.47 3.18 3.19 4.89-.17 1.05-1.56 1.1-2.84 1.24a9.34 9.34 0 01-3.06-.09 1.71 1.71 0 01-.47-.21c-.16-.09-.34-.2-.53-.33a14.83 14.83 0 01-2.62-1.93 1.52 1.52 0 00-.72-.38 1 1 0 00-.79.36 8.35 8.35 0 00-.5 1.32c-.17.56-.26 1.05-.52 1.14a5.41 5.41 0 01-1.47.18c-.65 0-1.32 0-1.75-.06h-.17c-4.26-.72-6.69-3.57-8.91-7s-3.2-5.55-3.55-6.92c-.22-.97-.15-1.53.23-1.79z" fill="#d8d8d8"/><path d="M6.43 12.83c.73-.41 2.56-.36 4.45-.34.3 0 .78.68 1.28 1.5a26 26 0 001.72 2.76c.11.17.28.33.38.46 1.41 1.74 1.93.2 2 .07s.08-.39.12-.56c.38-3.86-.45-3.79-.8-3.93.62-1.45 4.07-1.23 4.29-1.23a6.09 6.09 0 011.13.29l.31.11a1.91 1.91 0 01.32.15c.25.13.49.52.61 1.69 0 .54.15 1.14.21 1.72a10.83 10.83 0 00.4 2.29c.11.23.26.37.48.34A3.13 3.13 0 0024.76 17c.45-.54 1-1.17 1.45-1.85a24.64 24.64 0 011.43-2.05 1.23 1.23 0 01.48-.51 18.12 18.12 0 012.77-.09 6 6 0 012.73.38c.81.68-.13 2.45-1.07 4-.81 1.31-2.36 2.95-2.43 3.86a2.21 2.21 0 00.31 1.11l.15.32c.06.06.13.12.19.19 1.39 1.38 3.45 3.16 3.18 4.82-.16 1-1.57 1.06-2.86 1.18a9.48 9.48 0 01-3.09-.13 2.1 2.1 0 01-.46-.22l-.54-.34a18.71 18.71 0 01-2.58-2 1.49 1.49 0 00-.71-.39 1 1 0 00-.79.4 8.52 8.52 0 00-.44 1.32c-.15.58-.23 1.08-.48 1.17a4.92 4.92 0 01-1.46.18c-.64 0-1.31 0-1.74-.06h-.17c-4.22-.71-6.64-3.53-8.85-7a27.78 27.78 0 01-3.52-6.8c-.26-.86-.2-1.49.17-1.66z" fill="#d6d6d6"/><path d="M6.47 12.91c.74-.41 2.6-.35 4.53-.33.29 0 .78.71 1.28 1.57A32 32 0 0014 17a5.05 5.05 0 00.39.48c1.43 1.8 2 .2 2.05 0s.08-.4.11-.59c.37-4-.53-3.89-.94-4 .61-1.51 4.16-1.27 4.34-1.27a6.18 6.18 0 011.14.3 2.24 2.24 0 01.31.11 3.42 3.42 0 01.33.16c.24.13.47.53.57 1.73 0 .56.11 1.17.17 1.77a10.58 10.58 0 00.36 2.32c.11.25.27.4.49.37.38 0 .87-.51 1.39-1.15s1-1.21 1.44-1.91 1-1.62 1.4-2.13a1.26 1.26 0 01.45-.49 17.78 17.78 0 012.79-.1 6.33 6.33 0 012.76.36c.79.67-.19 2.45-1.15 4-.82 1.28-2.4 2.92-2.4 3.83a2.13 2.13 0 00.37 1.1c.05.1.11.2.16.31l.19.19c1.38 1.37 3.44 3.14 3.18 4.76-.17 1-1.6 1-2.9 1.11a9.53 9.53 0 01-3.05-.14 2 2 0 01-.46-.23 5.88 5.88 0 01-.51-.35 22.57 22.57 0 01-2.55-2.05 1.49 1.49 0 00-.71-.39 1 1 0 00-.78.45 6.69 6.69 0 00-.45 1.35c-.14.59-.2 1.11-.44 1.2a4.86 4.86 0 01-1.46.19c-.64 0-1.31 0-1.74-.06h-.17c-4.17-.7-6.57-3.5-8.77-6.95A29.72 29.72 0 016.4 14.6c-.3-.9-.27-1.5.07-1.69z" fill="#d4d4d4"/><path d="M6.52 13c.73-.41 2.64-.35 4.6-.32.29 0 .77.74 1.27 1.63.67 1.17 1.37 2.6 1.69 3a5.85 5.85 0 00.39.5c1.47 1.87 2 .21 2.07 0a5 5 0 00.1-.62c.36-4.13-.61-4-1.09-4.13.61-1.56 4.26-1.3 4.41-1.3a6.5 6.5 0 011.14.31 2.24 2.24 0 01.31.11 2 2 0 01.33.16c.24.14.47.54.54 1.79 0 .57.08 1.2.12 1.81a10.51 10.51 0 00.33 2.36c.12.26.28.42.5.4.38 0 .87-.5 1.4-1.16a23.22 23.22 0 001.42-2c.53-.83 1-1.68 1.37-2.21a1.36 1.36 0 01.47-.55 18 18 0 012.82-.1 6.38 6.38 0 012.79.32c.76.64-.26 2.44-1.24 4-.84 1.3-2.44 2.95-2.46 3.85a2.18 2.18 0 00.42 1.1c.06.09.12.2.19.3l.19.19c1.4 1.36 3.4 3.12 3.16 4.69-.16 1-1.61.95-2.92 1.05a9.39 9.39 0 01-3.05-.18 2 2 0 01-.45-.24c-.16-.1-.33-.23-.51-.37a29.89 29.89 0 01-2.51-2.11 1.4 1.4 0 00-.71-.39 1 1 0 00-.78.5 6.53 6.53 0 00-.42 1.36c-.12.61-.17 1.14-.4 1.23a4.74 4.74 0 01-1.45.19c-.64 0-1.3 0-1.73-.06h-.17c-4.14-.69-6.52-3.47-8.71-6.91a31.77 31.77 0 01-3.49-6.55c-.27-.89-.27-1.47.06-1.65z" fill="#d3d3d3"/><path d="M6.57 13.08c.73-.41 2.67-.34 4.67-.3.28 0 .77.77 1.27 1.69.67 1.21 1.37 2.7 1.68 3.08a6.44 6.44 0 00.38.52c1.5 1.94 2 .2 2.08 0a4 4 0 00.09-.66c.35-4.25-.68-4.11-1.22-4.22.6-1.61 4.35-1.35 4.46-1.35a8.19 8.19 0 011.15.32l.32.12a1.69 1.69 0 01.33.17c.23.13.46.55.5 1.83 0 .58 0 1.23.08 1.86a9.25 9.25 0 00.3 2.39c.11.28.27.45.5.44s.88-.5 1.41-1.18a22.3 22.3 0 001.39-2c.54-.88 1-1.75 1.36-2.3a1.48 1.48 0 01.46-.57 17.59 17.59 0 012.84-.11 6.7 6.7 0 012.82.32c.74.63-.32 2.44-1.33 4-.85 1.29-2.48 2.94-2.47 3.84a2.12 2.12 0 00.48 1.03c.07.1.13.2.21.3l.18.19c1.36 1.35 3.41 3.09 3.16 4.63-.16 1-1.63.9-3 1a9.48 9.48 0 01-3-.19 2 2 0 01-.45-.24l-.5-.39c-.91-.65-1.84-1.65-2.47-2.17-.3-.24-.55-.4-.7-.38a1 1 0 00-.78.53 5.76 5.76 0 00-.39 1.38c-.11.62-.15 1.17-.37 1.26a4.62 4.62 0 01-1.44.19c-.63 0-1.3 0-1.73-.06h-.16c-4.1-.69-6.46-3.44-8.65-6.87a33.34 33.34 0 01-3.46-6.43c-.3-.92-.32-1.5 0-1.67z" fill="#d1d1d1"/><path d="M6.61 13.16c.74-.4 2.72-.33 4.75-.28.28 0 .76.79 1.27 1.74.67 1.26 1.37 2.8 1.66 3.2.13.2.27.38.39.54 1.52 2 2.05.2 2.09 0a6.1 6.1 0 00.08-.69c.34-4.39-.76-4.22-1.36-4.33C16.08 11.67 19.93 12 20 12a8.48 8.48 0 011.16.33l.32.12.34.17c.22.14.45.56.47 1.89v1.9a9.32 9.32 0 00.26 2.43c.11.29.28.47.51.46s.89-.49 1.41-1.18A20.12 20.12 0 0025.88 16c.53-.91 1-1.81 1.33-2.38a1.52 1.52 0 01.46-.59 17.23 17.23 0 012.86-.12 6.79 6.79 0 012.84.31c.72.6-.37 2.43-1.41 4-.86 1.28-2.52 2.93-2.48 3.84a2.11 2.11 0 00.52 1l.22.3.18.18c1.35 1.35 3.39 3.07 3.15 4.56-.15.95-1.64.85-3 .92a9.56 9.56 0 01-3-.21 1.93 1.93 0 01-.44-.26 5.14 5.14 0 01-.5-.4c-.85-.67-1.79-1.69-2.43-2.23-.3-.25-.55-.4-.7-.38a1 1 0 00-.77.58 5.26 5.26 0 00-.36 1.39c-.1.64-.13 1.2-.33 1.29a4.57 4.57 0 01-1.44.2c-.63 0-1.29 0-1.72-.06h-.17c-4.05-.68-6.39-3.4-8.58-6.82a36.69 36.69 0 01-3.44-6.32c-.31-.9-.35-1.47-.06-1.64z" fill="#cfcfcf"/><path d="M6.66 13.25c.74-.41 2.75-.33 4.82-.28.27 0 .76.83 1.27 1.81.66 1.3 1.37 2.89 1.64 3.31.14.21.27.39.39.55 1.56 2.08 2.08.2 2.11 0s.05-.49.07-.72c.33-4.52-.84-4.32-1.5-4.43C16 11.75 20 12.05 20 12.05a11.55 11.55 0 011.18.34l.31.12a2.81 2.81 0 01.35.18c.21.14.44.57.43 1.93v1.94a8.9 8.9 0 00.24 2.44c.11.31.27.5.51.5.39 0 .89-.49 1.42-1.2a17.9 17.9 0 001.36-2.16c.52-.94 1-1.87 1.3-2.46a1.68 1.68 0 01.45-.61 17.44 17.44 0 012.89-.07 6.85 6.85 0 012.87.28c.7.59-.43 2.43-1.5 4-.87 1.28-2.56 2.93-2.49 3.84a2.2 2.2 0 00.59 1.06l.25.29.18.18c1.33 1.34 3.37 3.05 3.14 4.5-.16.93-1.67.8-3 .85a9.11 9.11 0 01-3-.24 1.78 1.78 0 01-.44-.26l-.54-.5c-.8-.7-1.73-1.75-2.39-2.3-.3-.25-.55-.4-.7-.38a1.07 1.07 0 00-.77.63 5.12 5.12 0 00-.33 1.4c-.08.65-.1 1.23-.29 1.32a4.23 4.23 0 01-1.43.2c-.63 0-1.29 0-1.72-.06h-.16c-4-.68-6.34-3.37-8.52-6.78a38.86 38.86 0 01-3.41-6.2c-.34-.83-.4-1.43-.12-1.58z" fill="#cecece"/><path d="M33.25 13.33a7.3 7.3 0 00-2.91-.26 17 17 0 00-2.9.13 17.72 17.72 0 00-1.72 3.17c-.92 1.76-2 3.45-2.77 3.44-.93 0-.72-2.91-.66-5 0-1.41-.19-1.85-.4-2a7.9 7.9 0 00-1.89-.66s-4-.31-4.62 1.45c.77.1 2.1-.15 1.59 5.28 0 .27-.62 2.5-2.51-.53-.47-.74-2.28-5.26-2.91-5.28-2.09-.06-4.15-.14-4.88.26s.9 3.5 3.56 7.66c2.18 3.41 4.48 6.07 8.45 6.74A9.74 9.74 0 0022 27.6c.43-.21-.09-3.16 1.33-3.43.63-.13 3 3.06 4 3.43a9.46 9.46 0 003 .26c1.36 0 2.89.12 3-.79.33-2-4.09-4.68-4.22-5.94-.1-.91 1.61-2.57 2.5-3.83 1.14-1.54 2.31-3.4 1.64-3.97z" fill="#ccc"/></g><path d="M33.25 13.33a7.3 7.3 0 00-2.91-.26 16.92 16.92 0 00-2.9.13 17.72 17.72 0 00-1.72 3.17c-.92 1.76-2 3.45-2.77 3.44-.93 0-.72-2.91-.66-5 0-1.41-.19-1.85-.4-2a8.06 8.06 0 00-1.89-.66s-4-.31-4.62 1.45c.77.1 2.1-.15 1.59 5.28 0 .26-.62 2.5-2.51-.53-.47-.74-2.28-5.26-2.91-5.28-2.09-.06-4.15-.14-4.88.26s.9 3.5 3.56 7.66c2.18 3.41 4.48 6.07 8.45 6.74A9.74 9.74 0 0022 27.6c.42-.21-.09-3.16 1.32-3.43.64-.13 3.05 3.06 4 3.43a9.46 9.46 0 003 .26c1.36 0 2.89.12 3-.79.33-2-4.09-4.68-4.23-5.94-.09-.91 1.62-2.57 2.51-3.83 1.15-1.54 2.32-3.4 1.65-3.97z" fill="#b28e5d"/></g></svg>