<svg xmlns="http://www.w3.org/2000/svg" viewBox="0 0 40 40"><g data-name="Слой 2"><path d="M20 .89A19.11 19.11 0 1039.11 20 19.13 19.13 0 0020 .89z" fill="#4c5156"/><path d="M20 0a20 20 0 1020 20A20 20 0 0020 0zm0 39.11A19.11 19.11 0 1139.11 20 19.13 19.13 0 0120 39.11z" fill="#3d4247"/><path d="M33.25 13.33a7.3 7.3 0 00-2.91-.26 16.92 16.92 0 00-2.9.13 17.72 17.72 0 00-1.72 3.17c-.92 1.76-2 3.45-2.77 3.44-.93 0-.72-2.91-.66-5 0-1.41-.19-1.85-.4-2a8.06 8.06 0 00-1.89-.66s-4-.31-4.62 1.45c.77.1 2.1-.15 1.59 5.28 0 .26-.62 2.5-2.51-.53-.47-.74-2.28-5.26-2.91-5.28-2.09-.06-4.15-.14-4.88.26s.9 3.5 3.56 7.66c2.18 3.41 4.48 6.07 8.45 6.74A9.74 9.74 0 0022 27.6c.42-.21-.09-3.16 1.32-3.43.64-.13 3.05 3.06 4 3.43a9.46 9.46 0 003 .26c1.36 0 2.89.12 3-.79.33-2-4.09-4.68-4.23-5.94-.09-.91 1.62-2.57 2.51-3.83 1.15-1.54 2.32-3.4 1.65-3.97z" fill="#b28e5d"/></g></svg>